<svg width="27" height="27" viewBox="0 0 27 27" fill="none" xmlns="http://www.w3.org/2000/svg">
<g clip-path="url(#clip0_796_1138)">
<path d="M9.71484 24.7417H9.72969L9.74453 24.7268L9.71484 24.7417Z" fill="#808080"/>
<path d="M18.5029 22.6734H18.5326L18.5475 22.6586L18.5029 22.6734Z" fill="#808080"/>
<path d="M14.1094 23.7001L14.1391 23.715L14.1539 23.7001H14.1094Z" fill="#808080"/>
<path d="M18.5774 3.0613C18.4051 2.35744 17.9615 1.75073 17.3437 1.37418C16.7259 0.997623 15.9844 0.88194 15.2817 1.05248L3.03412 3.93924C2.68238 4.01981 2.35006 4.16943 2.05633 4.37946C1.76261 4.58949 1.5133 4.85577 1.32282 5.16291C1.13234 5.47005 1.00445 5.81198 0.946544 6.16894C0.888636 6.5259 0.901855 6.89083 0.985438 7.24264L5.33517 25.7982L6.81973 23.9382C6.89882 23.8339 7.01084 23.7594 7.13753 23.727C7.26423 23.6945 7.39814 23.7061 7.51747 23.7596L9.68491 24.7715L11.1695 22.9115C11.2506 22.8096 11.3635 22.7381 11.49 22.7084C11.6166 22.6787 11.7495 22.6926 11.8672 22.7478L14.0347 23.7448L15.5192 21.8847C15.6043 21.7838 15.7197 21.7132 15.8482 21.6837C15.9768 21.6542 16.1113 21.6673 16.2318 21.7211L18.3844 22.7329L19.8689 20.8729C19.95 20.7711 20.0629 20.6995 20.1895 20.6698C20.3161 20.6402 20.4489 20.654 20.5667 20.7092L22.7341 21.7062L18.5774 3.0613Z" fill="url(#paint0_linear_796_1138)"/>
<g filter="url(#filter0_bi_796_1138)">
<path d="M26.4015 4.20709C26.3898 3.36636 26.0484 2.56405 25.4511 1.97369C24.8538 1.38334 24.0486 1.05241 23.2098 1.05249H8.54238C7.69586 1.05249 6.88402 1.38956 6.28544 1.98953C5.68686 2.5895 5.35059 3.40324 5.35059 4.25173V26.3488L7.54773 24.6376C7.66591 24.5434 7.81243 24.4922 7.9634 24.4922C8.11437 24.4922 8.26089 24.5434 8.37907 24.6376L10.5911 26.3488L12.7733 24.6376C12.8949 24.5447 13.0436 24.4944 13.1964 24.4944C13.3493 24.4944 13.498 24.5447 13.6195 24.6376L15.8464 26.3488L18.1326 24.6971C18.2508 24.603 18.3973 24.5517 18.5483 24.5517C18.6992 24.5517 18.8457 24.603 18.9639 24.6971L21.1017 26.3488L23.284 24.6376C23.4055 24.5447 23.5542 24.4944 23.7071 24.4944C23.86 24.4944 24.0086 24.5447 24.1302 24.6376L26.3718 26.3488L26.4015 4.20709Z" fill="#F1F1F1" fill-opacity="0.2"/>
<path d="M26.4015 4.20709C26.3898 3.36636 26.0484 2.56405 25.4511 1.97369C24.8538 1.38334 24.0486 1.05241 23.2098 1.05249H8.54238C7.69586 1.05249 6.88402 1.38956 6.28544 1.98953C5.68686 2.5895 5.35059 3.40324 5.35059 4.25173V26.3488L7.54773 24.6376C7.66591 24.5434 7.81243 24.4922 7.9634 24.4922C8.11437 24.4922 8.26089 24.5434 8.37907 24.6376L10.5911 26.3488L12.7733 24.6376C12.8949 24.5447 13.0436 24.4944 13.1964 24.4944C13.3493 24.4944 13.498 24.5447 13.6195 24.6376L15.8464 26.3488L18.1326 24.6971C18.2508 24.603 18.3973 24.5517 18.5483 24.5517C18.6992 24.5517 18.8457 24.603 18.9639 24.6971L21.1017 26.3488L23.284 24.6376C23.4055 24.5447 23.5542 24.4944 23.7071 24.4944C23.86 24.4944 24.0086 24.5447 24.1302 24.6376L26.3718 26.3488L26.4015 4.20709Z" fill="url(#paint1_linear_796_1138)" fill-opacity="0.1"/>
<path d="M26.2024 26.0057L24.2334 24.5026C24.2333 24.5026 24.2333 24.5025 24.2333 24.5025C24.0821 24.387 23.8973 24.3244 23.7071 24.3244C23.5169 24.3244 23.332 24.387 23.1808 24.5026L23.1791 24.5039L21.1009 26.1335L19.0698 24.5642C19.0695 24.5639 19.0692 24.5637 19.0688 24.5634C18.9208 24.4458 18.7373 24.3818 18.5483 24.3818C18.3602 24.3818 18.1777 24.4451 18.03 24.5616L15.8495 26.1369L13.7231 24.5029L13.7227 24.5026C13.5716 24.387 13.3867 24.3244 13.1964 24.3244C13.0062 24.3244 12.8213 24.387 12.6701 24.5026L12.6685 24.5039L10.5904 26.1334L8.48496 24.5047C8.48464 24.5044 8.48431 24.5042 8.48398 24.5039C8.33592 24.3863 8.15247 24.3222 7.9634 24.3222C7.77423 24.3222 7.5907 24.3864 7.4426 24.5041C7.44234 24.5043 7.44209 24.5045 7.44184 24.5047L5.52052 26.0011V4.25173C5.52052 3.44818 5.83899 2.67762 6.40574 2.10955C6.97248 1.54149 7.74106 1.22242 8.54238 1.22242H23.2098C24.0038 1.22234 24.7661 1.5356 25.3316 2.09455C25.8969 2.65323 26.2202 3.41249 26.2316 4.20825L26.2024 26.0057Z" stroke="url(#paint2_linear_796_1138)" stroke-opacity="0.1" stroke-width="0.339864"/>
</g>
<g filter="url(#filter1_bd_796_1138)">
<path d="M18.3849 6.94507H9.58155C9.11421 6.94507 8.73535 7.32148 8.73535 7.7858C8.73535 8.25012 9.11421 8.62653 9.58155 8.62653H18.3849C18.8523 8.62653 19.2311 8.25012 19.2311 7.7858C19.2311 7.32148 18.8523 6.94507 18.3849 6.94507Z" fill="url(#paint3_linear_796_1138)"/>
<path d="M9.58155 7.01198H18.3849C18.8157 7.01198 19.1642 7.35884 19.1642 7.7858C19.1642 8.21276 18.8157 8.55962 18.3849 8.55962H9.58155C9.15075 8.55962 8.80226 8.21276 8.80226 7.7858C8.80226 7.35884 9.15075 7.01198 9.58155 7.01198Z" stroke="url(#paint4_linear_796_1138)" stroke-opacity="0.5" stroke-width="0.133821"/>
</g>
<g filter="url(#filter2_bd_796_1138)">
<path d="M22.2151 12.0341H9.58155C9.11421 12.0341 8.73535 12.4105 8.73535 12.8748C8.73535 13.3391 9.11421 13.7155 9.58155 13.7155H22.2151C22.6824 13.7155 23.0613 13.3391 23.0613 12.8748C23.0613 12.4105 22.6824 12.0341 22.2151 12.0341Z" fill="url(#paint5_linear_796_1138)"/>
<path d="M9.58155 12.101H22.2151C22.6459 12.101 22.9944 12.4478 22.9944 12.8748C22.9944 13.3017 22.6459 13.6486 22.2151 13.6486H9.58155C9.15075 13.6486 8.80226 13.3017 8.80226 12.8748C8.80226 12.4478 9.15075 12.101 9.58155 12.101Z" stroke="url(#paint6_linear_796_1138)" stroke-opacity="0.5" stroke-width="0.133821"/>
</g>
<g filter="url(#filter3_bd_796_1138)">
<path d="M22.2151 17.1082H9.58155C9.11421 17.1082 8.73535 17.4846 8.73535 17.9489C8.73535 18.4132 9.11421 18.7896 9.58155 18.7896H22.2151C22.6824 18.7896 23.0613 18.4132 23.0613 17.9489C23.0613 17.4846 22.6824 17.1082 22.2151 17.1082Z" fill="url(#paint7_linear_796_1138)"/>
<path d="M9.58155 17.1751H22.2151C22.6459 17.1751 22.9944 17.5219 22.9944 17.9489C22.9944 18.3758 22.6459 18.7227 22.2151 18.7227H9.58155C9.15075 18.7227 8.80226 18.3758 8.80226 17.9489C8.80226 17.5219 9.15075 17.1751 9.58155 17.1751Z" stroke="url(#paint8_linear_796_1138)" stroke-opacity="0.5" stroke-width="0.133821"/>
</g>
</g>
<defs>
<filter id="filter0_bi_796_1138" x="-0.172196" y="-4.47029" width="32.0963" height="36.3418" filterUnits="userSpaceOnUse" color-interpolation-filters="sRGB">
<feFlood flood-opacity="0" result="BackgroundImageFix"/>
<feGaussianBlur in="BackgroundImageFix" stdDeviation="2.76139"/>
<feComposite in2="SourceAlpha" operator="in" result="effect1_backgroundBlur_796_1138"/>
<feBlend mode="normal" in="SourceGraphic" in2="effect1_backgroundBlur_796_1138" result="shape"/>
<feColorMatrix in="SourceAlpha" type="matrix" values="0 0 0 0 0 0 0 0 0 0 0 0 0 0 0 0 0 0 127 0" result="hardAlpha"/>
<feOffset dy="0.920464"/>
<feGaussianBlur stdDeviation="1.84093"/>
<feComposite in2="hardAlpha" operator="arithmetic" k2="-1" k3="1"/>
<feColorMatrix type="matrix" values="0 0 0 0 1 0 0 0 0 1 0 0 0 0 1 0 0 0 0.4 0"/>
<feBlend mode="normal" in2="shape" result="effect2_innerShadow_796_1138"/>
</filter>
<filter id="filter1_bd_796_1138" x="-1.30122" y="-3.0915" width="30.5692" height="21.7547" filterUnits="userSpaceOnUse" color-interpolation-filters="sRGB">
<feFlood flood-opacity="0" result="BackgroundImageFix"/>
<feGaussianBlur in="BackgroundImageFix" stdDeviation="5.01829"/>
<feComposite in2="SourceAlpha" operator="in" result="effect1_backgroundBlur_796_1138"/>
<feColorMatrix in="SourceAlpha" type="matrix" values="0 0 0 0 0 0 0 0 0 0 0 0 0 0 0 0 0 0 127 0" result="hardAlpha"/>
<feOffset dy="1.13288"/>
<feGaussianBlur stdDeviation="1.4161"/>
<feColorMatrix type="matrix" values="0 0 0 0 0.554167 0 0 0 0 0.626956 0 0 0 0 1 0 0 0 0.5 0"/>
<feBlend mode="normal" in2="effect1_backgroundBlur_796_1138" result="effect2_dropShadow_796_1138"/>
<feBlend mode="normal" in="SourceGraphic" in2="effect2_dropShadow_796_1138" result="shape"/>
</filter>
<filter id="filter2_bd_796_1138" x="-1.30122" y="1.99749" width="34.3993" height="21.7547" filterUnits="userSpaceOnUse" color-interpolation-filters="sRGB">
<feFlood flood-opacity="0" result="BackgroundImageFix"/>
<feGaussianBlur in="BackgroundImageFix" stdDeviation="5.01829"/>
<feComposite in2="SourceAlpha" operator="in" result="effect1_backgroundBlur_796_1138"/>
<feColorMatrix in="SourceAlpha" type="matrix" values="0 0 0 0 0 0 0 0 0 0 0 0 0 0 0 0 0 0 127 0" result="hardAlpha"/>
<feOffset dy="1.13288"/>
<feGaussianBlur stdDeviation="1.4161"/>
<feColorMatrix type="matrix" values="0 0 0 0 0.554167 0 0 0 0 0.626956 0 0 0 0 1 0 0 0 0.5 0"/>
<feBlend mode="normal" in2="effect1_backgroundBlur_796_1138" result="effect2_dropShadow_796_1138"/>
<feBlend mode="normal" in="SourceGraphic" in2="effect2_dropShadow_796_1138" result="shape"/>
</filter>
<filter id="filter3_bd_796_1138" x="-1.30122" y="7.07158" width="34.3993" height="21.7547" filterUnits="userSpaceOnUse" color-interpolation-filters="sRGB">
<feFlood flood-opacity="0" result="BackgroundImageFix"/>
<feGaussianBlur in="BackgroundImageFix" stdDeviation="5.01829"/>
<feComposite in2="SourceAlpha" operator="in" result="effect1_backgroundBlur_796_1138"/>
<feColorMatrix in="SourceAlpha" type="matrix" values="0 0 0 0 0 0 0 0 0 0 0 0 0 0 0 0 0 0 127 0" result="hardAlpha"/>
<feOffset dy="1.13288"/>
<feGaussianBlur stdDeviation="1.4161"/>
<feColorMatrix type="matrix" values="0 0 0 0 0.554167 0 0 0 0 0.626956 0 0 0 0 1 0 0 0 0.5 0"/>
<feBlend mode="normal" in2="effect1_backgroundBlur_796_1138" result="effect2_dropShadow_796_1138"/>
<feBlend mode="normal" in="SourceGraphic" in2="effect2_dropShadow_796_1138" result="shape"/>
</filter>
<linearGradient id="paint0_linear_796_1138" x1="1.03513" y1="13.387" x2="22.7341" y2="13.387" gradientUnits="userSpaceOnUse">
<stop stop-color="#E2FE26"/>
<stop offset="1" stop-color="#00E1FF"/>
</linearGradient>
<linearGradient id="paint1_linear_796_1138" x1="6.22771" y1="6.11176" x2="29.3093" y2="8.77952" gradientUnits="userSpaceOnUse">
<stop stop-color="#E5F203"/>
<stop offset="0.911458" stop-color="#5B8500"/>
<stop offset="1" stop-color="#5200BA"/>
</linearGradient>
<linearGradient id="paint2_linear_796_1138" x1="6.22771" y1="6.11176" x2="29.3093" y2="8.77952" gradientUnits="userSpaceOnUse">
<stop stop-color="#E5F203"/>
<stop offset="0.911458" stop-color="#5B8500"/>
<stop offset="1" stop-color="#5200BA"/>
</linearGradient>
<linearGradient id="paint3_linear_796_1138" x1="18.487" y1="7.24871" x2="7.24874" y2="9.5359" gradientUnits="userSpaceOnUse">
<stop stop-color="white"/>
<stop offset="1" stop-color="white" stop-opacity="0.2"/>
</linearGradient>
<linearGradient id="paint4_linear_796_1138" x1="9.86598" y1="7.50912" x2="18.7681" y2="7.81587" gradientUnits="userSpaceOnUse">
<stop stop-color="white"/>
<stop offset="1" stop-color="white" stop-opacity="0"/>
</linearGradient>
<linearGradient id="paint5_linear_796_1138" x1="22.0456" y1="12.3377" x2="7.21529" y2="16.4574" gradientUnits="userSpaceOnUse">
<stop stop-color="white"/>
<stop offset="1" stop-color="white" stop-opacity="0.2"/>
</linearGradient>
<linearGradient id="paint6_linear_796_1138" x1="10.2786" y1="12.5981" x2="22.4168" y2="13.169" gradientUnits="userSpaceOnUse">
<stop stop-color="white"/>
<stop offset="1" stop-color="white" stop-opacity="0"/>
</linearGradient>
<linearGradient id="paint7_linear_796_1138" x1="22.0456" y1="17.4118" x2="7.21529" y2="21.5315" gradientUnits="userSpaceOnUse">
<stop stop-color="white"/>
<stop offset="1" stop-color="white" stop-opacity="0.2"/>
</linearGradient>
<linearGradient id="paint8_linear_796_1138" x1="10.2786" y1="17.6722" x2="22.4168" y2="18.2431" gradientUnits="userSpaceOnUse">
<stop stop-color="white"/>
<stop offset="1" stop-color="white" stop-opacity="0"/>
</linearGradient>
<clipPath id="clip0_796_1138">
<rect width="25.4898" height="25.4898" fill="white" transform="translate(0.911133 0.948364)"/>
</clipPath>
</defs>
</svg>
