<svg width="45" height="46" viewBox="0 0 45 46" fill="none" xmlns="http://www.w3.org/2000/svg">
<g clip-path="url(#clip0_44_10687)">
<path d="M15.5415 42.0985H15.5677L15.5939 42.0723L15.5415 42.0985Z" fill="#808080"/>
<path d="M31.0571 38.4472H31.1095L31.1358 38.4209L31.0571 38.4472Z" fill="#808080"/>
<path d="M23.2993 40.2598L23.3517 40.286L23.3779 40.2598H23.2993Z" fill="#808080"/>
<path d="M31.1883 3.82375C30.8842 2.58114 30.101 1.51006 29.0103 0.845283C27.9197 0.180507 26.6106 -0.0237217 25.37 0.277347L3.74795 5.37368C3.12699 5.51592 2.5403 5.78006 2.02175 6.15085C1.5032 6.52164 1.06308 6.99173 0.7268 7.53396C0.39052 8.0762 0.164746 8.67984 0.062515 9.31002C-0.0397165 9.94021 -0.0163798 10.5845 0.13118 11.2056L7.81027 43.9639L10.4311 40.6802C10.5708 40.4959 10.7685 40.3645 10.9922 40.3072C11.2158 40.25 11.4523 40.2703 11.6629 40.3649L15.4894 42.1513L18.1102 38.8675C18.2534 38.6878 18.4527 38.5615 18.6762 38.5091C18.8996 38.4567 19.1341 38.4812 19.342 38.5786L23.1685 40.3386L25.7893 37.0549C25.9395 36.8767 26.1433 36.7522 26.3702 36.7001C26.5971 36.648 26.8347 36.6711 27.0473 36.766L30.8475 38.5523L33.4684 35.2686C33.6115 35.0888 33.8109 34.9626 34.0343 34.9101C34.2578 34.8577 34.4923 34.8822 34.7002 34.9796L38.5266 36.7397L31.1883 3.82375Z" fill="url(#paint0_linear_44_10687)"/>
<g filter="url(#filter0_bi_44_10687)">
<path d="M45.0001 5.84653C44.9794 4.36229 44.3766 2.94587 43.3221 1.90365C42.2676 0.86143 40.8462 0.277199 39.3653 0.277344H13.4713C11.9768 0.277344 10.5436 0.872403 9.48683 1.93161C8.43009 2.99081 7.83643 4.42739 7.83643 5.92533V44.9358L11.7153 41.9148C11.9239 41.7486 12.1826 41.6581 12.4491 41.6581C12.7156 41.6581 12.9743 41.7486 13.183 41.9148L17.088 44.9358L20.9407 41.9148C21.1553 41.7508 21.4177 41.6619 21.6876 41.6619C21.9575 41.6619 22.2199 41.7508 22.4346 41.9148L26.3658 44.9358L30.4019 42.0199C30.6106 41.8537 30.8693 41.7632 31.1358 41.7632C31.4023 41.7632 31.661 41.8537 31.8696 42.0199L35.6437 44.9358L39.4963 41.9148C39.7109 41.7508 39.9733 41.6619 40.2432 41.6619C40.5131 41.6619 40.7756 41.7508 40.9902 41.9148L44.9477 44.9358L45.0001 5.84653Z" fill="#F1F1F1" fill-opacity="0.2"/>
<path d="M45.0001 5.84653C44.9794 4.36229 44.3766 2.94587 43.3221 1.90365C42.2676 0.86143 40.8462 0.277199 39.3653 0.277344H13.4713C11.9768 0.277344 10.5436 0.872403 9.48683 1.93161C8.43009 2.99081 7.83643 4.42739 7.83643 5.92533V44.9358L11.7153 41.9148C11.9239 41.7486 12.1826 41.6581 12.4491 41.6581C12.7156 41.6581 12.9743 41.7486 13.183 41.9148L17.088 44.9358L20.9407 41.9148C21.1553 41.7508 21.4177 41.6619 21.6876 41.6619C21.9575 41.6619 22.2199 41.7508 22.4346 41.9148L26.3658 44.9358L30.4019 42.0199C30.6106 41.8537 30.8693 41.7632 31.1358 41.7632C31.4023 41.7632 31.661 41.8537 31.8696 42.0199L35.6437 44.9358L39.4963 41.9148C39.7109 41.7508 39.9733 41.6619 40.2432 41.6619C40.5131 41.6619 40.7756 41.7508 40.9902 41.9148L44.9477 44.9358L45.0001 5.84653Z" fill="url(#paint1_linear_44_10687)" fill-opacity="0.1"/>
<path d="M44.6485 44.33L41.1724 41.6765C40.9055 41.4725 40.579 41.3619 40.2432 41.3619C39.9074 41.3619 39.581 41.4725 39.3141 41.6765L39.3112 41.6788L35.6423 44.5557L32.0566 41.7853C32.0559 41.7848 32.0553 41.7842 32.0546 41.7837C31.7933 41.5762 31.4695 41.4632 31.1358 41.4632C30.8038 41.4632 30.4816 41.5751 30.2209 41.7806L26.3714 44.5617L22.6174 41.677L22.6167 41.6765C22.3499 41.4725 22.0234 41.3619 21.6876 41.3619C21.3518 41.3619 21.0254 41.4725 20.7585 41.6765L20.7556 41.6788L17.0868 44.5556L13.3699 41.6802C13.3693 41.6797 13.3686 41.6792 13.368 41.6787C13.1066 41.4712 12.7828 41.3581 12.4491 41.3581C12.1152 41.3581 11.7912 41.4713 11.5297 41.6791C11.5293 41.6795 11.5288 41.6798 11.5284 41.6802L8.13643 44.3219V5.92533C8.13643 4.50673 8.69866 3.14638 9.69921 2.14349C10.6997 1.14063 12.0566 0.577344 13.4713 0.577344H39.3653C40.7671 0.577207 42.1128 1.13024 43.1113 2.11702C44.1092 3.10332 44.68 4.44373 44.7001 5.84858L44.6485 44.33Z" stroke="url(#paint2_linear_44_10687)" stroke-opacity="0.1" stroke-width="0.6"/>
</g>
<g filter="url(#filter1_bd_44_10687)">
<path d="M30.8475 10.6807H15.3059C14.4808 10.6807 13.812 11.3452 13.812 12.1649C13.812 12.9846 14.4808 13.6491 15.3059 13.6491H30.8475C31.6726 13.6491 32.3414 12.9846 32.3414 12.1649C32.3414 11.3452 31.6726 10.6807 30.8475 10.6807Z" fill="url(#paint3_linear_44_10687)"/>
<path d="M15.3059 10.7988H30.8475C31.6081 10.7988 32.2233 11.4111 32.2233 12.1649C32.2233 12.9187 31.6081 13.531 30.8475 13.531H15.3059C14.5454 13.531 13.9301 12.9187 13.9301 12.1649C13.9301 11.4111 14.5454 10.7988 15.3059 10.7988Z" stroke="url(#paint4_linear_44_10687)" stroke-opacity="0.5" stroke-width="0.236249"/>
</g>
<g filter="url(#filter2_bd_44_10687)">
<path d="M37.6093 19.665H15.3059C14.4808 19.665 13.812 20.3296 13.812 21.1493C13.812 21.969 14.4808 22.6335 15.3059 22.6335H37.6093C38.4344 22.6335 39.1032 21.969 39.1032 21.1493C39.1032 20.3296 38.4344 19.665 37.6093 19.665Z" fill="url(#paint5_linear_44_10687)"/>
<path d="M15.3059 19.7832H37.6093C38.3699 19.7832 38.9851 20.3955 38.9851 21.1493C38.9851 21.903 38.3699 22.5154 37.6093 22.5154H15.3059C14.5454 22.5154 13.9301 21.903 13.9301 21.1493C13.9301 20.3955 14.5454 19.7832 15.3059 19.7832Z" stroke="url(#paint6_linear_44_10687)" stroke-opacity="0.5" stroke-width="0.236249"/>
</g>
<g filter="url(#filter3_bd_44_10687)">
<path d="M37.6093 28.623H15.3059C14.4808 28.623 13.812 29.2876 13.812 30.1073C13.812 30.927 14.4808 31.5915 15.3059 31.5915H37.6093C38.4344 31.5915 39.1032 30.927 39.1032 30.1073C39.1032 29.2876 38.4344 28.623 37.6093 28.623Z" fill="url(#paint7_linear_44_10687)"/>
<path d="M15.3059 28.7412H37.6093C38.3699 28.7412 38.9851 29.3535 38.9851 30.1073C38.9851 30.861 38.3699 31.4734 37.6093 31.4734H15.3059C14.5454 31.4734 13.9301 30.861 13.9301 30.1073C13.9301 29.3535 14.5454 28.7412 15.3059 28.7412Z" stroke="url(#paint8_linear_44_10687)" stroke-opacity="0.5" stroke-width="0.236249"/>
</g>
</g>
<defs>
<filter id="filter0_bi_44_10687" x="-1.91357" y="-9.47266" width="56.6636" height="64.1582" filterUnits="userSpaceOnUse" color-interpolation-filters="sRGB">
<feFlood flood-opacity="0" result="BackgroundImageFix"/>
<feGaussianBlur in="BackgroundImageFix" stdDeviation="4.875"/>
<feComposite in2="SourceAlpha" operator="in" result="effect1_backgroundBlur_44_10687"/>
<feBlend mode="normal" in="SourceGraphic" in2="effect1_backgroundBlur_44_10687" result="shape"/>
<feColorMatrix in="SourceAlpha" type="matrix" values="0 0 0 0 0 0 0 0 0 0 0 0 0 0 0 0 0 0 127 0" result="hardAlpha"/>
<feOffset dy="1.625"/>
<feGaussianBlur stdDeviation="3.25"/>
<feComposite in2="hardAlpha" operator="arithmetic" k2="-1" k3="1"/>
<feColorMatrix type="matrix" values="0 0 0 0 1 0 0 0 0 1 0 0 0 0 1 0 0 0 0.4 0"/>
<feBlend mode="normal" in2="shape" result="effect2_innerShadow_44_10687"/>
</filter>
<filter id="filter1_bd_44_10687" x="-3.9067" y="-7.03804" width="53.9667" height="38.4062" filterUnits="userSpaceOnUse" color-interpolation-filters="sRGB">
<feFlood flood-opacity="0" result="BackgroundImageFix"/>
<feGaussianBlur in="BackgroundImageFix" stdDeviation="8.85935"/>
<feComposite in2="SourceAlpha" operator="in" result="effect1_backgroundBlur_44_10687"/>
<feColorMatrix in="SourceAlpha" type="matrix" values="0 0 0 0 0 0 0 0 0 0 0 0 0 0 0 0 0 0 127 0" result="hardAlpha"/>
<feOffset dy="2"/>
<feGaussianBlur stdDeviation="2.5"/>
<feColorMatrix type="matrix" values="0 0 0 0 0.554167 0 0 0 0 0.626956 0 0 0 0 1 0 0 0 0.5 0"/>
<feBlend mode="normal" in2="effect1_backgroundBlur_44_10687" result="effect2_dropShadow_44_10687"/>
<feBlend mode="normal" in="SourceGraphic" in2="effect2_dropShadow_44_10687" result="shape"/>
</filter>
<filter id="filter2_bd_44_10687" x="-3.9067" y="1.94633" width="60.7284" height="38.4062" filterUnits="userSpaceOnUse" color-interpolation-filters="sRGB">
<feFlood flood-opacity="0" result="BackgroundImageFix"/>
<feGaussianBlur in="BackgroundImageFix" stdDeviation="8.85935"/>
<feComposite in2="SourceAlpha" operator="in" result="effect1_backgroundBlur_44_10687"/>
<feColorMatrix in="SourceAlpha" type="matrix" values="0 0 0 0 0 0 0 0 0 0 0 0 0 0 0 0 0 0 127 0" result="hardAlpha"/>
<feOffset dy="2"/>
<feGaussianBlur stdDeviation="2.5"/>
<feColorMatrix type="matrix" values="0 0 0 0 0.554167 0 0 0 0 0.626956 0 0 0 0 1 0 0 0 0.5 0"/>
<feBlend mode="normal" in2="effect1_backgroundBlur_44_10687" result="effect2_dropShadow_44_10687"/>
<feBlend mode="normal" in="SourceGraphic" in2="effect2_dropShadow_44_10687" result="shape"/>
</filter>
<filter id="filter3_bd_44_10687" x="-3.9067" y="10.9043" width="60.7284" height="38.4062" filterUnits="userSpaceOnUse" color-interpolation-filters="sRGB">
<feFlood flood-opacity="0" result="BackgroundImageFix"/>
<feGaussianBlur in="BackgroundImageFix" stdDeviation="8.85935"/>
<feComposite in2="SourceAlpha" operator="in" result="effect1_backgroundBlur_44_10687"/>
<feColorMatrix in="SourceAlpha" type="matrix" values="0 0 0 0 0 0 0 0 0 0 0 0 0 0 0 0 0 0 127 0" result="hardAlpha"/>
<feOffset dy="2"/>
<feGaussianBlur stdDeviation="2.5"/>
<feColorMatrix type="matrix" values="0 0 0 0 0.554167 0 0 0 0 0.626956 0 0 0 0 1 0 0 0 0.5 0"/>
<feBlend mode="normal" in2="effect1_backgroundBlur_44_10687" result="effect2_dropShadow_44_10687"/>
<feBlend mode="normal" in="SourceGraphic" in2="effect2_dropShadow_44_10687" result="shape"/>
</filter>
<linearGradient id="paint0_linear_44_10687" x1="1.60528" y1="8.90606" x2="43.7838" y2="14.0563" gradientUnits="userSpaceOnUse">
<stop stop-color="#E5F203"/>
<stop offset="0.911458" stop-color="#5B8500"/>
<stop offset="1" stop-color="#5200BA"/>
</linearGradient>
<linearGradient id="paint1_linear_44_10687" x1="9.38491" y1="9.20905" x2="50.1335" y2="13.9188" gradientUnits="userSpaceOnUse">
<stop stop-color="#E5F203"/>
<stop offset="0.911458" stop-color="#5B8500"/>
<stop offset="1" stop-color="#5200BA"/>
</linearGradient>
<linearGradient id="paint2_linear_44_10687" x1="9.38491" y1="9.20905" x2="50.1335" y2="13.9188" gradientUnits="userSpaceOnUse">
<stop stop-color="#E5F203"/>
<stop offset="0.911458" stop-color="#5B8500"/>
<stop offset="1" stop-color="#5200BA"/>
</linearGradient>
<linearGradient id="paint3_linear_44_10687" x1="31.0277" y1="11.2167" x2="11.1875" y2="15.2546" gradientUnits="userSpaceOnUse">
<stop stop-color="white"/>
<stop offset="1" stop-color="white" stop-opacity="0.2"/>
</linearGradient>
<linearGradient id="paint4_linear_44_10687" x1="15.808" y1="11.6764" x2="31.5239" y2="12.218" gradientUnits="userSpaceOnUse">
<stop stop-color="white"/>
<stop offset="1" stop-color="white" stop-opacity="0"/>
</linearGradient>
<linearGradient id="paint5_linear_44_10687" x1="37.3101" y1="20.2011" x2="11.1285" y2="27.474" gradientUnits="userSpaceOnUse">
<stop stop-color="white"/>
<stop offset="1" stop-color="white" stop-opacity="0.2"/>
</linearGradient>
<linearGradient id="paint6_linear_44_10687" x1="16.5364" y1="20.6608" x2="37.9654" y2="21.6687" gradientUnits="userSpaceOnUse">
<stop stop-color="white"/>
<stop offset="1" stop-color="white" stop-opacity="0"/>
</linearGradient>
<linearGradient id="paint7_linear_44_10687" x1="37.3101" y1="29.1591" x2="11.1285" y2="36.432" gradientUnits="userSpaceOnUse">
<stop stop-color="white"/>
<stop offset="1" stop-color="white" stop-opacity="0.2"/>
</linearGradient>
<linearGradient id="paint8_linear_44_10687" x1="16.5364" y1="29.6188" x2="37.9654" y2="30.6267" gradientUnits="userSpaceOnUse">
<stop stop-color="white"/>
<stop offset="1" stop-color="white" stop-opacity="0"/>
</linearGradient>
<clipPath id="clip0_44_10687">
<rect width="45" height="45" fill="white" transform="translate(0 0.09375)"/>
</clipPath>
</defs>
</svg>
