<svg width="26" height="27" viewBox="0 0 26 27" fill="none" xmlns="http://www.w3.org/2000/svg">
<g clip-path="url(#clip0_796_1157)">
<path d="M19.9124 7.98233L9.22679 4.17826C7.23488 3.46914 5.04417 4.506 4.33371 6.49414L0.522431 17.1595C-0.188032 19.1477 0.850787 21.3342 2.8427 22.0434L13.5283 25.8474C15.5202 26.5565 17.7109 25.5197 18.4214 23.5315L22.2327 12.8662C22.9431 10.878 21.9043 8.69145 19.9124 7.98233Z" fill="url(#paint0_linear_796_1157)"/>
<g filter="url(#filter0_bi_796_1157)">
<path d="M21.6679 0.744873H7.86284C5.68253 0.744873 3.91504 2.50902 3.91504 4.6852V18.4641C3.91504 20.6403 5.68253 22.4044 7.86284 22.4044H21.6679C23.8482 22.4044 25.6157 20.6403 25.6157 18.4641V4.6852C25.6157 2.50902 23.8482 0.744873 21.6679 0.744873Z" fill="#F1F1F1" fill-opacity="0.2"/>
<path d="M21.6679 0.744873H7.86284C5.68253 0.744873 3.91504 2.50902 3.91504 4.6852V18.4641C3.91504 20.6403 5.68253 22.4044 7.86284 22.4044H21.6679C23.8482 22.4044 25.6157 20.6403 25.6157 18.4641V4.6852C25.6157 2.50902 23.8482 0.744873 21.6679 0.744873Z" fill="url(#paint1_linear_796_1157)" fill-opacity="0.1"/>
<path d="M7.86284 0.914805H21.6679C23.7546 0.914805 25.4457 2.60317 25.4457 4.6852V18.4641C25.4457 20.5461 23.7546 22.2345 21.6679 22.2345H7.86284C5.77608 22.2345 4.08497 20.5461 4.08497 18.4641V4.6852C4.08497 2.60317 5.77608 0.914805 7.86284 0.914805Z" stroke="url(#paint2_linear_796_1157)" stroke-opacity="0.1" stroke-width="0.339864"/>
</g>
<g filter="url(#filter1_bd_796_1157)">
<path d="M9.10066 11.8071H8.52443C7.90148 11.8071 7.39648 12.3112 7.39648 12.9329V16.7264C7.39648 17.3482 7.90148 17.8522 8.52443 17.8522H9.10066C9.7236 17.8522 10.2286 17.3482 10.2286 16.7264V12.9329C10.2286 12.3112 9.7236 11.8071 9.10066 11.8071Z" fill="url(#paint3_linear_796_1157)"/>
<path d="M8.52443 11.874H9.10066C9.68677 11.874 10.1617 12.3482 10.1617 12.9329V16.7264C10.1617 17.3111 9.68677 17.7853 9.10066 17.7853H8.52443C7.93831 17.7853 7.46339 17.3111 7.46339 16.7264V12.9329C7.46339 12.3482 7.93832 11.874 8.52443 11.874Z" stroke="url(#paint4_linear_796_1157)" stroke-opacity="0.5" stroke-width="0.133821"/>
</g>
<g filter="url(#filter2_bd_796_1157)">
<path d="M13.0606 9.38428H12.4844C11.8614 9.38428 11.3564 9.88832 11.3564 10.5101V16.7387C11.3564 17.3605 11.8614 17.8645 12.4844 17.8645H13.0606C13.6836 17.8645 14.1886 17.3605 14.1886 16.7387V10.5101C14.1886 9.88832 13.6836 9.38428 13.0606 9.38428Z" fill="url(#paint5_linear_796_1157)"/>
<path d="M12.4844 9.45119H13.0606C13.6467 9.45119 14.1216 9.92539 14.1216 10.5101V16.7387C14.1216 17.3234 13.6467 17.7976 13.0606 17.7976H12.4844C11.8983 17.7976 11.4234 17.3234 11.4234 16.7387V10.5101C11.4234 9.92539 11.8983 9.45119 12.4844 9.45119Z" stroke="url(#paint6_linear_796_1157)" stroke-opacity="0.5" stroke-width="0.133821"/>
</g>
<g filter="url(#filter3_bd_796_1157)">
<path d="M17.0343 10.6691H16.458C15.8351 10.6691 15.3301 11.1731 15.3301 11.7949V16.7386C15.3301 17.3604 15.8351 17.8644 16.458 17.8644H17.0343C17.6572 17.8644 18.1622 17.3604 18.1622 16.7386V11.7949C18.1622 11.1731 17.6572 10.6691 17.0343 10.6691Z" fill="url(#paint7_linear_796_1157)"/>
<path d="M16.458 10.736H17.0343C17.6204 10.736 18.0953 11.2102 18.0953 11.7949V16.7386C18.0953 17.3233 17.6204 17.7975 17.0343 17.7975H16.458C15.8719 17.7975 15.397 17.3233 15.397 16.7386V11.7949C15.397 11.2102 15.8719 10.736 16.458 10.736Z" stroke="url(#paint8_linear_796_1157)" stroke-opacity="0.5" stroke-width="0.133821"/>
</g>
<g filter="url(#filter4_bd_796_1157)">
<path d="M20.9932 13.1288H20.417C19.7941 13.1288 19.2891 13.6328 19.2891 14.2546V16.7387C19.2891 17.3605 19.7941 17.8645 20.417 17.8645H20.9932C21.6162 17.8645 22.1212 17.3605 22.1212 16.7387V14.2546C22.1212 13.6328 21.6162 13.1288 20.9932 13.1288Z" fill="url(#paint9_linear_796_1157)"/>
<path d="M20.417 13.1957H20.9932C21.5793 13.1957 22.0543 13.6699 22.0543 14.2546V16.7387C22.0543 17.3234 21.5793 17.7976 20.9932 17.7976H20.417C19.8309 17.7976 19.356 17.3234 19.356 16.7387V14.2546C19.356 13.6699 19.8309 13.1957 20.417 13.1957Z" stroke="url(#paint10_linear_796_1157)" stroke-opacity="0.5" stroke-width="0.133821"/>
</g>
<g filter="url(#filter5_bd_796_1157)">
<path d="M20.8829 10.3019C20.7233 10.3034 20.5664 10.2611 20.4293 10.1796L12.9015 5.95779L9.41956 8.95586C9.3279 9.03486 9.22153 9.095 9.10652 9.13285C8.99151 9.1707 8.87014 9.1855 8.74939 9.1764C8.62864 9.16731 8.51086 9.13449 8.40285 9.07985C8.29484 9.0252 8.19871 8.9498 8.11997 8.85797C7.9632 8.67187 7.88568 8.4319 7.90401 8.18944C7.92234 7.94699 8.03507 7.72135 8.21806 7.56084L12.1781 4.15895C12.3218 4.03581 12.4997 3.9593 12.6881 3.93962C12.8765 3.91995 13.0664 3.95803 13.2325 4.04881L21.3243 8.58875C21.5331 8.70484 21.6875 8.8985 21.7541 9.12763C21.8207 9.35676 21.794 9.60287 21.6798 9.81245C21.602 9.95694 21.4873 10.0783 21.3474 10.1643C21.2074 10.2502 21.0472 10.2977 20.8829 10.3019Z" fill="url(#paint11_linear_796_1157)"/>
<path d="M20.4635 10.1221L20.4635 10.122L20.462 10.1212L12.9342 5.89943L12.8933 5.87651L12.8578 5.90709L9.3759 8.90516L9.37587 8.90518C9.29089 8.97843 9.19225 9.0342 9.08561 9.06929C8.97895 9.10439 8.8664 9.11812 8.75442 9.10968C8.64243 9.10125 8.53322 9.07082 8.43306 9.02014C8.33299 8.96952 8.24392 8.89968 8.17096 8.81464C8.02558 8.64196 7.95373 8.41936 7.97073 8.19449C7.98773 7.96963 8.09224 7.76032 8.26193 7.61137C8.26201 7.61129 8.26209 7.61122 8.26218 7.61114L12.2216 4.20976C12.2217 4.20974 12.2217 4.20972 12.2217 4.20971C12.3551 4.09544 12.5202 4.02443 12.695 4.00617C12.8698 3.98792 13.046 4.02321 13.2001 4.10735C13.2002 4.10741 13.2003 4.10747 13.2004 4.10753L21.2915 8.6471L21.2917 8.64723C21.4852 8.75477 21.6282 8.93412 21.6899 9.1463C21.7515 9.35847 21.7268 9.58635 21.621 9.78044L21.6209 9.78074C21.5487 9.91482 21.4423 10.0275 21.3123 10.1073C21.1826 10.187 21.034 10.231 20.8817 10.235C20.7345 10.2363 20.5899 10.1972 20.4635 10.1221Z" stroke="url(#paint12_linear_796_1157)" stroke-opacity="0.5" stroke-width="0.133821"/>
</g>
</g>
<defs>
<filter id="filter0_bi_796_1157" x="-1.60774" y="-4.77791" width="32.7458" height="32.7051" filterUnits="userSpaceOnUse" color-interpolation-filters="sRGB">
<feFlood flood-opacity="0" result="BackgroundImageFix"/>
<feGaussianBlur in="BackgroundImageFix" stdDeviation="2.76139"/>
<feComposite in2="SourceAlpha" operator="in" result="effect1_backgroundBlur_796_1157"/>
<feBlend mode="normal" in="SourceGraphic" in2="effect1_backgroundBlur_796_1157" result="shape"/>
<feColorMatrix in="SourceAlpha" type="matrix" values="0 0 0 0 0 0 0 0 0 0 0 0 0 0 0 0 0 0 127 0" result="hardAlpha"/>
<feOffset dy="0.920464"/>
<feGaussianBlur stdDeviation="1.84093"/>
<feComposite in2="hardAlpha" operator="arithmetic" k2="-1" k3="1"/>
<feColorMatrix type="matrix" values="0 0 0 0 1 0 0 0 0 1 0 0 0 0 1 0 0 0 0.4 0"/>
<feBlend mode="normal" in2="shape" result="effect2_innerShadow_796_1157"/>
</filter>
<filter id="filter1_bd_796_1157" x="-2.64009" y="1.77056" width="22.9052" height="26.1182" filterUnits="userSpaceOnUse" color-interpolation-filters="sRGB">
<feFlood flood-opacity="0" result="BackgroundImageFix"/>
<feGaussianBlur in="BackgroundImageFix" stdDeviation="5.01829"/>
<feComposite in2="SourceAlpha" operator="in" result="effect1_backgroundBlur_796_1157"/>
<feColorMatrix in="SourceAlpha" type="matrix" values="0 0 0 0 0 0 0 0 0 0 0 0 0 0 0 0 0 0 127 0" result="hardAlpha"/>
<feOffset dy="0.849659"/>
<feGaussianBlur stdDeviation="1.4161"/>
<feColorMatrix type="matrix" values="0 0 0 0 0.995833 0 0 0 0 0.456424 0 0 0 0 0.611217 0 0 0 0.5 0"/>
<feBlend mode="normal" in2="effect1_backgroundBlur_796_1157" result="effect2_dropShadow_796_1157"/>
<feBlend mode="normal" in="SourceGraphic" in2="effect2_dropShadow_796_1157" result="shape"/>
</filter>
<filter id="filter2_bd_796_1157" x="1.31987" y="-0.652293" width="22.9052" height="28.5534" filterUnits="userSpaceOnUse" color-interpolation-filters="sRGB">
<feFlood flood-opacity="0" result="BackgroundImageFix"/>
<feGaussianBlur in="BackgroundImageFix" stdDeviation="5.01829"/>
<feComposite in2="SourceAlpha" operator="in" result="effect1_backgroundBlur_796_1157"/>
<feColorMatrix in="SourceAlpha" type="matrix" values="0 0 0 0 0 0 0 0 0 0 0 0 0 0 0 0 0 0 127 0" result="hardAlpha"/>
<feOffset dy="0.849659"/>
<feGaussianBlur stdDeviation="1.4161"/>
<feColorMatrix type="matrix" values="0 0 0 0 0.995833 0 0 0 0 0.456424 0 0 0 0 0.611217 0 0 0 0.5 0"/>
<feBlend mode="normal" in2="effect1_backgroundBlur_796_1157" result="effect2_dropShadow_796_1157"/>
<feBlend mode="normal" in="SourceGraphic" in2="effect2_dropShadow_796_1157" result="shape"/>
</filter>
<filter id="filter3_bd_796_1157" x="5.29351" y="0.632497" width="22.9052" height="27.2686" filterUnits="userSpaceOnUse" color-interpolation-filters="sRGB">
<feFlood flood-opacity="0" result="BackgroundImageFix"/>
<feGaussianBlur in="BackgroundImageFix" stdDeviation="5.01829"/>
<feComposite in2="SourceAlpha" operator="in" result="effect1_backgroundBlur_796_1157"/>
<feColorMatrix in="SourceAlpha" type="matrix" values="0 0 0 0 0 0 0 0 0 0 0 0 0 0 0 0 0 0 127 0" result="hardAlpha"/>
<feOffset dy="0.849659"/>
<feGaussianBlur stdDeviation="1.4161"/>
<feColorMatrix type="matrix" values="0 0 0 0 0.995833 0 0 0 0 0.456424 0 0 0 0 0.611217 0 0 0 0.5 0"/>
<feBlend mode="normal" in2="effect1_backgroundBlur_796_1157" result="effect2_dropShadow_796_1157"/>
<feBlend mode="normal" in="SourceGraphic" in2="effect2_dropShadow_796_1157" result="shape"/>
</filter>
<filter id="filter4_bd_796_1157" x="9.25249" y="3.09221" width="22.9052" height="24.8089" filterUnits="userSpaceOnUse" color-interpolation-filters="sRGB">
<feFlood flood-opacity="0" result="BackgroundImageFix"/>
<feGaussianBlur in="BackgroundImageFix" stdDeviation="5.01829"/>
<feComposite in2="SourceAlpha" operator="in" result="effect1_backgroundBlur_796_1157"/>
<feColorMatrix in="SourceAlpha" type="matrix" values="0 0 0 0 0 0 0 0 0 0 0 0 0 0 0 0 0 0 127 0" result="hardAlpha"/>
<feOffset dy="0.849659"/>
<feGaussianBlur stdDeviation="1.4161"/>
<feColorMatrix type="matrix" values="0 0 0 0 0.995833 0 0 0 0 0.456424 0 0 0 0 0.611217 0 0 0 0.5 0"/>
<feBlend mode="normal" in2="effect1_backgroundBlur_796_1157" result="effect2_dropShadow_796_1157"/>
<feBlend mode="normal" in="SourceGraphic" in2="effect2_dropShadow_796_1157" result="shape"/>
</filter>
<filter id="filter5_bd_796_1157" x="-2.1352" y="-6.102" width="33.9618" height="26.4406" filterUnits="userSpaceOnUse" color-interpolation-filters="sRGB">
<feFlood flood-opacity="0" result="BackgroundImageFix"/>
<feGaussianBlur in="BackgroundImageFix" stdDeviation="5.01829"/>
<feComposite in2="SourceAlpha" operator="in" result="effect1_backgroundBlur_796_1157"/>
<feColorMatrix in="SourceAlpha" type="matrix" values="0 0 0 0 0 0 0 0 0 0 0 0 0 0 0 0 0 0 127 0" result="hardAlpha"/>
<feOffset dy="0.849659"/>
<feGaussianBlur stdDeviation="1.4161"/>
<feColorMatrix type="matrix" values="0 0 0 0 0.995833 0 0 0 0 0.456424 0 0 0 0 0.611217 0 0 0 0.5 0"/>
<feBlend mode="normal" in2="effect1_backgroundBlur_796_1157" result="effect2_dropShadow_796_1157"/>
<feBlend mode="normal" in="SourceGraphic" in2="effect2_dropShadow_796_1157" result="shape"/>
</filter>
<linearGradient id="paint0_linear_796_1157" x1="2.52975" y1="11.8631" x2="20.3194" y2="18.2202" gradientUnits="userSpaceOnUse">
<stop stop-color="#E2FE26"/>
<stop offset="1" stop-color="#00E1FF"/>
</linearGradient>
<linearGradient id="paint1_linear_796_1157" x1="3.91504" y1="0.667187" x2="29.8011" y2="13.9665" gradientUnits="userSpaceOnUse">
<stop stop-color="#FFDB94"/>
<stop offset="1" stop-color="#FE749C"/>
</linearGradient>
<linearGradient id="paint2_linear_796_1157" x1="4.59318" y1="1.7294" x2="25.6157" y2="1.7294" gradientUnits="userSpaceOnUse">
<stop stop-color="#FFDB94"/>
<stop offset="1" stop-color="#FE749C"/>
</linearGradient>
<linearGradient id="paint3_linear_796_1157" x1="10.0278" y1="12.8988" x2="6.87048" y2="12.947" gradientUnits="userSpaceOnUse">
<stop stop-color="white"/>
<stop offset="1" stop-color="white" stop-opacity="0.2"/>
</linearGradient>
<linearGradient id="paint4_linear_796_1157" x1="7.70157" y1="13.835" x2="10.1065" y2="13.8412" gradientUnits="userSpaceOnUse">
<stop stop-color="white"/>
<stop offset="1" stop-color="white" stop-opacity="0"/>
</linearGradient>
<linearGradient id="paint5_linear_796_1157" x1="13.9878" y1="10.9156" x2="10.8301" y2="10.95" gradientUnits="userSpaceOnUse">
<stop stop-color="white"/>
<stop offset="1" stop-color="white" stop-opacity="0.2"/>
</linearGradient>
<linearGradient id="paint6_linear_796_1157" x1="11.6615" y1="12.229" x2="14.0664" y2="12.2334" gradientUnits="userSpaceOnUse">
<stop stop-color="white"/>
<stop offset="1" stop-color="white" stop-opacity="0"/>
</linearGradient>
<linearGradient id="paint7_linear_796_1157" x1="17.9614" y1="11.9684" x2="14.8039" y2="12.0089" gradientUnits="userSpaceOnUse">
<stop stop-color="white"/>
<stop offset="1" stop-color="white" stop-opacity="0.2"/>
</linearGradient>
<linearGradient id="paint8_linear_796_1157" x1="15.6352" y1="13.0828" x2="18.0401" y2="13.088" gradientUnits="userSpaceOnUse">
<stop stop-color="white"/>
<stop offset="1" stop-color="white" stop-opacity="0"/>
</linearGradient>
<linearGradient id="paint9_linear_796_1157" x1="21.9204" y1="13.984" x2="18.7635" y2="14.0455" gradientUnits="userSpaceOnUse">
<stop stop-color="white"/>
<stop offset="1" stop-color="white" stop-opacity="0.2"/>
</linearGradient>
<linearGradient id="paint10_linear_796_1157" x1="19.5941" y1="14.7174" x2="21.999" y2="14.7253" gradientUnits="userSpaceOnUse">
<stop stop-color="white"/>
<stop offset="1" stop-color="white" stop-opacity="0"/>
</linearGradient>
<linearGradient id="paint11_linear_796_1157" x1="20.8053" y1="5.0844" x2="5.39617" y2="6.18025" gradientUnits="userSpaceOnUse">
<stop stop-color="white"/>
<stop offset="1" stop-color="white" stop-opacity="0.2"/>
</linearGradient>
<linearGradient id="paint12_linear_796_1157" x1="9.39748" y1="6.07053" x2="21.1895" y2="6.21252" gradientUnits="userSpaceOnUse">
<stop stop-color="white"/>
<stop offset="1" stop-color="white" stop-opacity="0"/>
</linearGradient>
<clipPath id="clip0_796_1157">
<rect width="25.4898" height="25.4898" fill="white" transform="translate(0.125977 0.744873)"/>
</clipPath>
</defs>
</svg>
