<svg width="45" height="46" viewBox="0 0 45 46" fill="none" xmlns="http://www.w3.org/2000/svg">
<g clip-path="url(#clip0_44_10706)">
<path d="M34.9315 13.2774L16.067 6.56167C12.5504 5.30978 8.68293 7.14026 7.42867 10.6501L0.700177 29.479C-0.554084 32.9889 1.27986 36.8491 4.79641 38.101L23.661 44.8167C27.1775 46.0686 31.045 44.2381 32.2993 40.7282L39.0278 21.8994C40.282 18.3895 38.4481 14.5293 34.9315 13.2774Z" fill="url(#paint0_linear_44_10706)"/>
<g filter="url(#filter0_bi_44_10706)">
<path d="M38.0306 0.5H13.659C9.8098 0.5 6.68945 3.61445 6.68945 7.45631V31.7818C6.68945 35.6237 9.8098 38.7381 13.659 38.7381H38.0306C41.8797 38.7381 45.0001 35.6237 45.0001 31.7818V7.45631C45.0001 3.61445 41.8797 0.5 38.0306 0.5Z" fill="#F1F1F1" fill-opacity="0.2"/>
<path d="M38.0306 0.5H13.659C9.8098 0.5 6.68945 3.61445 6.68945 7.45631V31.7818C6.68945 35.6237 9.8098 38.7381 13.659 38.7381H38.0306C41.8797 38.7381 45.0001 35.6237 45.0001 31.7818V7.45631C45.0001 3.61445 41.8797 0.5 38.0306 0.5Z" fill="url(#paint1_linear_44_10706)" fill-opacity="0.1"/>
<path d="M13.659 0.8H38.0306C41.7146 0.8 44.7001 3.78067 44.7001 7.45631V31.7818C44.7001 35.4574 41.7146 38.4381 38.0306 38.4381H13.659C9.97495 38.4381 6.98945 35.4574 6.98945 31.7818V7.45631C6.98945 3.78067 9.97495 0.8 13.659 0.8Z" stroke="url(#paint2_linear_44_10706)" stroke-opacity="0.1" stroke-width="0.6"/>
</g>
<g filter="url(#filter1_bd_44_10706)">
<path d="M15.845 20.0293H14.8277C13.728 20.0293 12.8364 20.9191 12.8364 22.0168V28.7139C12.8364 29.8116 13.728 30.7014 14.8277 30.7014H15.845C16.9448 30.7014 17.8363 29.8116 17.8363 28.7139V22.0168C17.8363 20.9191 16.9448 20.0293 15.845 20.0293Z" fill="url(#paint3_linear_44_10706)"/>
<path d="M14.8277 20.1474H15.845C16.8797 20.1474 17.7182 20.9846 17.7182 22.0168V28.7139C17.7182 29.7461 16.8797 30.5833 15.845 30.5833H14.8277C13.793 30.5833 12.9546 29.7461 12.9546 28.7139V22.0168C12.9546 20.9846 13.793 20.1474 14.8277 20.1474Z" stroke="url(#paint4_linear_44_10706)" stroke-opacity="0.5" stroke-width="0.236249"/>
</g>
<g filter="url(#filter2_bd_44_10706)">
<path d="M22.8362 15.752H21.8189C20.7192 15.752 19.8276 16.6418 19.8276 17.7395V28.7356C19.8276 29.8333 20.7192 30.7231 21.8189 30.7231H22.8362C23.936 30.7231 24.8275 29.8333 24.8275 28.7356V17.7395C24.8275 16.6418 23.936 15.752 22.8362 15.752Z" fill="url(#paint5_linear_44_10706)"/>
<path d="M21.8189 15.8701H22.8362C23.8709 15.8701 24.7094 16.7072 24.7094 17.7395V28.7356C24.7094 29.7679 23.8709 30.605 22.8362 30.605H21.8189C20.7842 30.605 19.9458 29.7679 19.9458 28.7356V17.7395C19.9458 16.7072 20.7842 15.8701 21.8189 15.8701Z" stroke="url(#paint6_linear_44_10706)" stroke-opacity="0.5" stroke-width="0.236249"/>
</g>
<g filter="url(#filter3_bd_44_10706)">
<path d="M29.8489 18.0205H28.8316C27.7319 18.0205 26.8403 18.9104 26.8403 20.008V28.7358C26.8403 29.8335 27.7319 30.7233 28.8316 30.7233H29.8489C30.9487 30.7233 31.8402 29.8335 31.8402 28.7358V20.008C31.8402 18.9104 30.9487 18.0205 29.8489 18.0205Z" fill="url(#paint7_linear_44_10706)"/>
<path d="M28.8316 18.1386H29.8489C30.8836 18.1386 31.7221 18.9758 31.7221 20.008V28.7358C31.7221 29.768 30.8836 30.6052 29.8489 30.6052H28.8316C27.7969 30.6052 26.9585 29.768 26.9585 28.7358V20.008C26.9585 18.9758 27.7969 18.1386 28.8316 18.1386Z" stroke="url(#paint8_linear_44_10706)" stroke-opacity="0.5" stroke-width="0.236249"/>
</g>
<g filter="url(#filter4_bd_44_10706)">
<path d="M36.8401 22.3623H35.8228C34.7231 22.3623 33.8315 23.2521 33.8315 24.3498V28.7353C33.8315 29.833 34.7231 30.7228 35.8228 30.7228H36.8401C37.9399 30.7228 38.8314 29.833 38.8314 28.7353V24.3498C38.8314 23.2521 37.9399 22.3623 36.8401 22.3623Z" fill="url(#paint9_linear_44_10706)"/>
<path d="M35.8228 22.4804H36.8401C37.8748 22.4804 38.7133 23.3176 38.7133 24.3498V28.7353C38.7133 29.7676 37.8748 30.6047 36.8401 30.6047H35.8228C34.7881 30.6047 33.9497 29.7676 33.9497 28.7353V24.3498C33.9497 23.3176 34.7881 22.4804 35.8228 22.4804Z" stroke="url(#paint10_linear_44_10706)" stroke-opacity="0.5" stroke-width="0.236249"/>
</g>
<g filter="url(#filter5_bd_44_10706)">
<path d="M36.6453 17.3719C36.3636 17.3745 36.0865 17.2998 35.8445 17.1559L22.5548 9.70269L16.4078 14.9955C16.246 15.135 16.0582 15.2412 15.8551 15.308C15.6521 15.3748 15.4378 15.4009 15.2247 15.3849C15.0115 15.3688 14.8036 15.3109 14.6129 15.2144C14.4222 15.1179 14.2525 14.9848 14.1135 14.8227C13.8367 14.4942 13.6998 14.0705 13.7322 13.6425C13.7646 13.2144 13.9636 12.8161 14.2866 12.5327L21.2778 6.52698C21.5315 6.30958 21.8455 6.17451 22.1781 6.13978C22.5106 6.10504 22.8459 6.17228 23.1392 6.33254L37.4245 14.3474C37.7932 14.5524 38.0659 14.8942 38.1834 15.2988C38.3009 15.7033 38.2538 16.1377 38.0522 16.5078C37.9149 16.7628 37.7124 16.9771 37.4653 17.1289C37.2182 17.2807 36.9353 17.3645 36.6453 17.3719Z" fill="url(#paint11_linear_44_10706)"/>
<path d="M35.9048 17.0543L35.9049 17.0543L35.9023 17.0528L22.6126 9.59966L22.5404 9.55919L22.4777 9.61317L16.3307 14.906L16.3307 14.906C16.1806 15.0354 16.0065 15.1338 15.8182 15.1958C15.6299 15.2577 15.4312 15.282 15.2335 15.2671C15.0358 15.2522 14.843 15.1985 14.6662 15.109C14.4895 15.0196 14.3323 14.8963 14.2034 14.7462C13.9468 14.4413 13.82 14.0484 13.85 13.6514C13.88 13.2544 14.0645 12.8849 14.3641 12.6219C14.3642 12.6218 14.3644 12.6217 14.3645 12.6215L21.3546 6.61667C21.5901 6.4149 21.8816 6.28951 22.1903 6.25726C22.4988 6.22504 22.8099 6.28735 23.082 6.43588C23.0822 6.43599 23.0824 6.43609 23.0825 6.4362L37.3667 14.4504L37.3671 14.4507C37.7086 14.6405 37.9611 14.9571 38.07 15.3317C38.1788 15.7063 38.1351 16.1086 37.9485 16.4512L37.9482 16.4518C37.8207 16.6885 37.6328 16.8874 37.4035 17.0282C37.1744 17.1689 36.9122 17.2467 36.6432 17.2538C36.3834 17.256 36.128 17.187 35.9048 17.0543Z" stroke="url(#paint12_linear_44_10706)" stroke-opacity="0.5" stroke-width="0.236249"/>
</g>
</g>
<defs>
<filter id="filter0_bi_44_10706" x="-3.06055" y="-9.25" width="57.8105" height="57.7383" filterUnits="userSpaceOnUse" color-interpolation-filters="sRGB">
<feFlood flood-opacity="0" result="BackgroundImageFix"/>
<feGaussianBlur in="BackgroundImageFix" stdDeviation="4.875"/>
<feComposite in2="SourceAlpha" operator="in" result="effect1_backgroundBlur_44_10706"/>
<feBlend mode="normal" in="SourceGraphic" in2="effect1_backgroundBlur_44_10706" result="shape"/>
<feColorMatrix in="SourceAlpha" type="matrix" values="0 0 0 0 0 0 0 0 0 0 0 0 0 0 0 0 0 0 127 0" result="hardAlpha"/>
<feOffset dy="1.625"/>
<feGaussianBlur stdDeviation="3.25"/>
<feComposite in2="hardAlpha" operator="arithmetic" k2="-1" k3="1"/>
<feColorMatrix type="matrix" values="0 0 0 0 1 0 0 0 0 1 0 0 0 0 1 0 0 0 0.4 0"/>
<feBlend mode="normal" in2="shape" result="effect2_innerShadow_44_10706"/>
</filter>
<filter id="filter1_bd_44_10706" x="-4.88228" y="2.31059" width="40.4374" height="46.1093" filterUnits="userSpaceOnUse" color-interpolation-filters="sRGB">
<feFlood flood-opacity="0" result="BackgroundImageFix"/>
<feGaussianBlur in="BackgroundImageFix" stdDeviation="8.85935"/>
<feComposite in2="SourceAlpha" operator="in" result="effect1_backgroundBlur_44_10706"/>
<feColorMatrix in="SourceAlpha" type="matrix" values="0 0 0 0 0 0 0 0 0 0 0 0 0 0 0 0 0 0 127 0" result="hardAlpha"/>
<feOffset dy="1.5"/>
<feGaussianBlur stdDeviation="2.5"/>
<feColorMatrix type="matrix" values="0 0 0 0 0.995833 0 0 0 0 0.456424 0 0 0 0 0.611217 0 0 0 0.5 0"/>
<feBlend mode="normal" in2="effect1_backgroundBlur_44_10706" result="effect2_dropShadow_44_10706"/>
<feBlend mode="normal" in="SourceGraphic" in2="effect2_dropShadow_44_10706" result="shape"/>
</filter>
<filter id="filter2_bd_44_10706" x="2.10893" y="-1.96675" width="40.4374" height="50.4091" filterUnits="userSpaceOnUse" color-interpolation-filters="sRGB">
<feFlood flood-opacity="0" result="BackgroundImageFix"/>
<feGaussianBlur in="BackgroundImageFix" stdDeviation="8.85935"/>
<feComposite in2="SourceAlpha" operator="in" result="effect1_backgroundBlur_44_10706"/>
<feColorMatrix in="SourceAlpha" type="matrix" values="0 0 0 0 0 0 0 0 0 0 0 0 0 0 0 0 0 0 127 0" result="hardAlpha"/>
<feOffset dy="1.5"/>
<feGaussianBlur stdDeviation="2.5"/>
<feColorMatrix type="matrix" values="0 0 0 0 0.995833 0 0 0 0 0.456424 0 0 0 0 0.611217 0 0 0 0.5 0"/>
<feBlend mode="normal" in2="effect1_backgroundBlur_44_10706" result="effect2_dropShadow_44_10706"/>
<feBlend mode="normal" in="SourceGraphic" in2="effect2_dropShadow_44_10706" result="shape"/>
</filter>
<filter id="filter3_bd_44_10706" x="9.12162" y="0.3018" width="40.4374" height="48.1405" filterUnits="userSpaceOnUse" color-interpolation-filters="sRGB">
<feFlood flood-opacity="0" result="BackgroundImageFix"/>
<feGaussianBlur in="BackgroundImageFix" stdDeviation="8.85935"/>
<feComposite in2="SourceAlpha" operator="in" result="effect1_backgroundBlur_44_10706"/>
<feColorMatrix in="SourceAlpha" type="matrix" values="0 0 0 0 0 0 0 0 0 0 0 0 0 0 0 0 0 0 127 0" result="hardAlpha"/>
<feOffset dy="1.5"/>
<feGaussianBlur stdDeviation="2.5"/>
<feColorMatrix type="matrix" values="0 0 0 0 0.995833 0 0 0 0 0.456424 0 0 0 0 0.611217 0 0 0 0.5 0"/>
<feBlend mode="normal" in2="effect1_backgroundBlur_44_10706" result="effect2_dropShadow_44_10706"/>
<feBlend mode="normal" in="SourceGraphic" in2="effect2_dropShadow_44_10706" result="shape"/>
</filter>
<filter id="filter4_bd_44_10706" x="16.1128" y="4.6436" width="40.4374" height="43.7978" filterUnits="userSpaceOnUse" color-interpolation-filters="sRGB">
<feFlood flood-opacity="0" result="BackgroundImageFix"/>
<feGaussianBlur in="BackgroundImageFix" stdDeviation="8.85935"/>
<feComposite in2="SourceAlpha" operator="in" result="effect1_backgroundBlur_44_10706"/>
<feColorMatrix in="SourceAlpha" type="matrix" values="0 0 0 0 0 0 0 0 0 0 0 0 0 0 0 0 0 0 127 0" result="hardAlpha"/>
<feOffset dy="1.5"/>
<feGaussianBlur stdDeviation="2.5"/>
<feColorMatrix type="matrix" values="0 0 0 0 0.995833 0 0 0 0 0.456424 0 0 0 0 0.611217 0 0 0 0.5 0"/>
<feBlend mode="normal" in2="effect1_backgroundBlur_44_10706" result="effect2_dropShadow_44_10706"/>
<feBlend mode="normal" in="SourceGraphic" in2="effect2_dropShadow_44_10706" result="shape"/>
</filter>
<filter id="filter5_bd_44_10706" x="-3.99117" y="-11.5878" width="59.9565" height="46.6786" filterUnits="userSpaceOnUse" color-interpolation-filters="sRGB">
<feFlood flood-opacity="0" result="BackgroundImageFix"/>
<feGaussianBlur in="BackgroundImageFix" stdDeviation="8.85935"/>
<feComposite in2="SourceAlpha" operator="in" result="effect1_backgroundBlur_44_10706"/>
<feColorMatrix in="SourceAlpha" type="matrix" values="0 0 0 0 0 0 0 0 0 0 0 0 0 0 0 0 0 0 127 0" result="hardAlpha"/>
<feOffset dy="1.5"/>
<feGaussianBlur stdDeviation="2.5"/>
<feColorMatrix type="matrix" values="0 0 0 0 0.995833 0 0 0 0 0.456424 0 0 0 0 0.611217 0 0 0 0.5 0"/>
<feBlend mode="normal" in2="effect1_backgroundBlur_44_10706" result="effect2_dropShadow_44_10706"/>
<feBlend mode="normal" in="SourceGraphic" in2="effect2_dropShadow_44_10706" result="shape"/>
</filter>
<linearGradient id="paint0_linear_44_10706" x1="8.76222" y1="11.0715" x2="41.475" y2="28.16" gradientUnits="userSpaceOnUse">
<stop stop-color="#EA66E2"/>
<stop offset="1" stop-color="#3E4FE7"/>
</linearGradient>
<linearGradient id="paint1_linear_44_10706" x1="6.68945" y1="0.362852" x2="52.389" y2="23.8417" gradientUnits="userSpaceOnUse">
<stop stop-color="#FFDB94"/>
<stop offset="1" stop-color="#FE749C"/>
</linearGradient>
<linearGradient id="paint2_linear_44_10706" x1="7.88666" y1="2.2381" x2="45.0001" y2="2.2381" gradientUnits="userSpaceOnUse">
<stop stop-color="#FFDB94"/>
<stop offset="1" stop-color="#FE749C"/>
</linearGradient>
<linearGradient id="paint3_linear_44_10706" x1="17.4818" y1="21.9565" x2="11.9078" y2="22.0416" gradientUnits="userSpaceOnUse">
<stop stop-color="white"/>
<stop offset="1" stop-color="white" stop-opacity="0.2"/>
</linearGradient>
<linearGradient id="paint4_linear_44_10706" x1="13.375" y1="23.6093" x2="17.6207" y2="23.6203" gradientUnits="userSpaceOnUse">
<stop stop-color="white"/>
<stop offset="1" stop-color="white" stop-opacity="0"/>
</linearGradient>
<linearGradient id="paint5_linear_44_10706" x1="24.473" y1="18.4555" x2="18.8984" y2="18.5162" gradientUnits="userSpaceOnUse">
<stop stop-color="white"/>
<stop offset="1" stop-color="white" stop-opacity="0.2"/>
</linearGradient>
<linearGradient id="paint6_linear_44_10706" x1="20.3662" y1="20.7741" x2="24.6119" y2="20.7819" gradientUnits="userSpaceOnUse">
<stop stop-color="white"/>
<stop offset="1" stop-color="white" stop-opacity="0"/>
</linearGradient>
<linearGradient id="paint7_linear_44_10706" x1="31.4857" y1="20.3144" x2="25.9113" y2="20.3859" gradientUnits="userSpaceOnUse">
<stop stop-color="white"/>
<stop offset="1" stop-color="white" stop-opacity="0.2"/>
</linearGradient>
<linearGradient id="paint8_linear_44_10706" x1="27.3789" y1="22.2817" x2="31.6246" y2="22.2909" gradientUnits="userSpaceOnUse">
<stop stop-color="white"/>
<stop offset="1" stop-color="white" stop-opacity="0"/>
</linearGradient>
<linearGradient id="paint9_linear_44_10706" x1="38.4769" y1="23.8721" x2="32.9037" y2="23.9807" gradientUnits="userSpaceOnUse">
<stop stop-color="white"/>
<stop offset="1" stop-color="white" stop-opacity="0.2"/>
</linearGradient>
<linearGradient id="paint10_linear_44_10706" x1="34.3701" y1="25.1669" x2="38.6158" y2="25.1809" gradientUnits="userSpaceOnUse">
<stop stop-color="white"/>
<stop offset="1" stop-color="white" stop-opacity="0"/>
</linearGradient>
<linearGradient id="paint11_linear_44_10706" x1="36.5084" y1="8.16078" x2="9.30483" y2="10.0954" gradientUnits="userSpaceOnUse">
<stop stop-color="white"/>
<stop offset="1" stop-color="white" stop-opacity="0.2"/>
</linearGradient>
<linearGradient id="paint12_linear_44_10706" x1="16.3688" y1="9.90171" x2="37.1866" y2="10.1524" gradientUnits="userSpaceOnUse">
<stop stop-color="white"/>
<stop offset="1" stop-color="white" stop-opacity="0"/>
</linearGradient>
<clipPath id="clip0_44_10706">
<rect width="45" height="45" fill="white" transform="translate(0 0.5)"/>
</clipPath>
</defs>
</svg>
