<svg width="27" height="27" viewBox="0 0 27 27" fill="none" xmlns="http://www.w3.org/2000/svg">
<g clip-path="url(#clip0_796_1172)">
<path d="M22.2438 10.7137C22.1142 10.4135 22.069 10.083 22.1132 9.75848C22.1573 9.43398 22.2892 9.12803 22.4942 8.87419L24.4971 6.3887C24.3337 6.08285 24.0935 5.82581 23.8005 5.6434C23.5075 5.461 23.1721 5.35965 22.828 5.34955C21.6735 5.34955 21.1867 5.70061 20.227 5.34955C19.2672 4.99849 19.0725 4.36659 18.3492 4.19808C17.6259 4.02957 17.1669 4.54914 16.1654 4.36659C15.164 4.18404 14.8997 3.65043 13.8843 3.11682C13.5713 2.96935 13.2255 2.9073 12.8814 2.93687C12.5373 2.96644 12.2068 3.08659 11.9231 3.28534L12.5907 6.41677C12.6602 6.73659 12.6412 7.06956 12.5357 7.37918C12.4302 7.6888 12.2423 7.96311 11.9926 8.17207C9.51972 10.071 7.68827 12.6949 6.74879 15.6847C5.52477 20.8383 8.13973 24.6859 13.2027 25.9076C18.2657 27.1292 22.3273 24.8965 23.5513 19.743C24.0368 16.669 23.5806 13.5187 22.2438 10.7137Z" fill="url(#paint0_linear_796_1172)"/>
<g filter="url(#filter0_bi_796_1172)">
<path d="M17.0967 6.90186C16.8735 6.6051 16.7352 6.25115 16.6973 5.87924C16.6593 5.50734 16.7232 5.132 16.8819 4.79482L18.4398 1.51111C18.1809 1.21398 17.8495 0.99173 17.4793 0.866807C17.1091 0.741884 16.713 0.718718 16.3312 0.799645C15.0688 1.12802 14.6256 1.63425 13.4974 1.56584C12.3693 1.49743 11.9798 0.799645 11.1471 0.799645C10.3144 0.799645 9.92497 1.51111 8.79682 1.56584C7.66868 1.62057 7.21205 1.12802 5.96303 0.799645C5.5812 0.718718 5.18517 0.741884 4.81494 0.866807C4.44471 0.99173 4.1134 1.21398 3.85448 1.51111L5.35867 4.79482C5.51917 5.13077 5.58531 5.50542 5.54975 5.87729C5.5142 6.24917 5.37834 6.60378 5.15722 6.90186C3.81419 8.62581 1.35645 12.4842 1.35645 16.6298C1.35645 22.6637 5.21094 26.2073 11.1068 26.2073C17.0027 26.2073 20.8572 22.6363 20.8572 16.6298C20.8975 12.4842 18.3861 8.62581 17.0967 6.90186Z" fill="#F1F1F1" fill-opacity="0.2"/>
<path d="M17.0967 6.90186C16.8735 6.6051 16.7352 6.25115 16.6973 5.87924C16.6593 5.50734 16.7232 5.132 16.8819 4.79482L18.4398 1.51111C18.1809 1.21398 17.8495 0.99173 17.4793 0.866807C17.1091 0.741884 16.713 0.718718 16.3312 0.799645C15.0688 1.12802 14.6256 1.63425 13.4974 1.56584C12.3693 1.49743 11.9798 0.799645 11.1471 0.799645C10.3144 0.799645 9.92497 1.51111 8.79682 1.56584C7.66868 1.62057 7.21205 1.12802 5.96303 0.799645C5.5812 0.718718 5.18517 0.741884 4.81494 0.866807C4.44471 0.99173 4.1134 1.21398 3.85448 1.51111L5.35867 4.79482C5.51917 5.13077 5.58531 5.50542 5.54975 5.87729C5.5142 6.24917 5.37834 6.60378 5.15722 6.90186C3.81419 8.62581 1.35645 12.4842 1.35645 16.6298C1.35645 22.6637 5.21094 26.2073 11.1068 26.2073C17.0027 26.2073 20.8572 22.6363 20.8572 16.6298C20.8975 12.4842 18.3861 8.62581 17.0967 6.90186Z" fill="url(#paint1_linear_796_1172)" fill-opacity="0.1"/>
<path d="M16.7283 4.72198L16.7281 4.72248C16.5563 5.08767 16.4872 5.49399 16.5282 5.89648C16.5693 6.29893 16.7189 6.68224 16.9609 7.0039C18.2474 8.72418 20.727 12.5429 20.6873 16.6282V16.6298C20.6873 19.5957 19.7366 21.9429 18.0749 23.5488C16.4124 25.1555 14.0206 26.0374 11.1068 26.0374C8.19273 26.0374 5.80095 25.1621 4.13864 23.5589C2.47719 21.9566 1.52638 19.6096 1.52638 16.6298C1.52638 12.5426 3.95451 8.7222 5.29127 7.0063L5.29131 7.00633L5.2937 7.00311C5.53338 6.67999 5.68043 6.29593 5.71891 5.89347C5.75735 5.49147 5.68601 5.08637 5.5126 4.72282L4.05595 1.54289C4.28311 1.30821 4.56179 1.13157 4.86927 1.02782C5.2094 0.913051 5.57305 0.891438 5.92385 0.96505C6.37546 1.08407 6.71546 1.22291 7.0334 1.35274C7.14521 1.3984 7.25429 1.44294 7.36454 1.48512C7.78926 1.6476 8.2098 1.76445 8.80506 1.73557C9.40847 1.7063 9.8156 1.49939 10.1634 1.31178C10.1782 1.30381 10.1929 1.29589 10.2074 1.28805C10.5369 1.10998 10.7967 0.969577 11.1471 0.969577C11.5008 0.969577 11.7626 1.10962 12.0949 1.28744C12.107 1.2939 12.1191 1.30041 12.1314 1.30697C12.4788 1.49258 12.885 1.69895 13.4871 1.73546C14.0837 1.77164 14.5019 1.6544 14.9255 1.48994C15.0323 1.44845 15.1382 1.40462 15.2467 1.35969C15.5667 1.22719 15.9099 1.08511 16.3702 0.965095C16.7211 0.891429 17.0848 0.913027 17.425 1.02782C17.7319 1.1314 18.0102 1.30762 18.2372 1.54171L16.7283 4.72198Z" stroke="url(#paint2_linear_796_1172)" stroke-opacity="0.1" stroke-width="0.339864"/>
</g>
<g filter="url(#filter1_bd_796_1172)">
<path d="M11.8596 19.6946V20.8575C11.8741 20.9696 11.865 21.0834 11.8328 21.1916C11.8007 21.2997 11.7462 21.3996 11.6731 21.4846C11.6 21.5696 11.5099 21.6376 11.4089 21.6843C11.3079 21.7309 11.1983 21.7551 11.0873 21.7551C10.9764 21.7551 10.8668 21.7309 10.7658 21.6843C10.6647 21.6376 10.5747 21.5696 10.5016 21.4846C10.4285 21.3996 10.374 21.2997 10.3418 21.1916C10.3097 21.0834 10.3006 20.9696 10.3151 20.8575V19.6672C9.8412 19.6449 9.38154 19.4952 8.98286 19.2333C8.58419 18.9713 8.26073 18.6065 8.04538 18.1758C7.98221 18.0293 7.95017 17.8707 7.95137 17.7106C7.94567 17.6097 7.96077 17.5086 7.9957 17.4139C8.03062 17.3193 8.0846 17.2331 8.15416 17.1609C8.22373 17.0888 8.30734 17.0322 8.39963 16.995C8.49191 16.9577 8.59083 16.9405 8.69003 16.9445C8.85516 16.9373 9.01847 16.982 9.15781 17.0725C9.29715 17.1631 9.40578 17.2951 9.46899 17.4507C9.62471 17.7588 9.86862 18.0114 10.1684 18.1751C10.4682 18.3388 10.8097 18.4058 11.1478 18.3674C12.061 18.3674 12.6788 17.9159 12.6788 17.3139C12.6788 16.7119 12.2894 16.4656 11.3358 16.2467L10.4763 16.0825C8.8512 15.7541 8.05881 14.9606 8.05881 13.7428C8.08085 13.1157 8.33077 12.5193 8.7601 12.0692C9.18942 11.6192 9.76753 11.3477 10.3822 11.3074V10.035C10.3677 9.92298 10.3768 9.80908 10.409 9.70094C10.4411 9.5928 10.4956 9.49291 10.5687 9.40794C10.6418 9.32297 10.7319 9.25487 10.8329 9.20823C10.9339 9.16158 11.0436 9.13745 11.1545 9.13745C11.2654 9.13745 11.375 9.16158 11.4761 9.20823C11.5771 9.25487 11.6672 9.32297 11.7403 9.40794C11.8134 9.49291 11.8678 9.5928 11.9 9.70094C11.9321 9.80908 11.9413 9.92298 11.9267 10.035V11.3211C12.403 11.356 12.8602 11.5256 13.2469 11.8108C13.6337 12.0961 13.9346 12.4856 14.1159 12.9356C14.1383 13.0623 14.1383 13.192 14.1159 13.3187C14.1181 13.4145 14.1005 13.5097 14.0642 13.5981C14.028 13.6865 13.974 13.7662 13.9056 13.8319C13.8372 13.8977 13.7561 13.9481 13.6674 13.9799C13.5787 14.0117 13.4844 14.0242 13.3906 14.0165C13.2206 14.0224 13.0527 13.976 12.909 13.8832C12.7652 13.7905 12.6522 13.6557 12.5848 13.4966C12.4596 13.2114 12.2497 12.9734 11.9846 12.8163C11.7195 12.6592 11.4127 12.5908 11.1075 12.6209C10.2614 12.6209 9.76446 13.0177 9.76446 13.6334C9.76446 14.2491 10.1539 14.4543 11.1075 14.6459L11.967 14.8237C13.6861 15.1658 14.4248 15.8773 14.4248 17.1223C14.4177 17.8094 14.1439 18.4657 13.6632 18.9477C13.1825 19.4297 12.534 19.6982 11.8596 19.6946Z" fill="url(#paint3_linear_796_1172)"/>
<path d="M11.8599 19.6276L11.7927 19.6273V19.6946V20.8575H11.7921L11.7932 20.8661C11.8066 20.9689 11.7982 21.0734 11.7687 21.1725C11.7392 21.2717 11.6893 21.3632 11.6224 21.441C11.5555 21.5187 11.4731 21.5809 11.3809 21.6235C11.2886 21.6661 11.1885 21.6882 11.0873 21.6882C10.9861 21.6882 10.8861 21.6661 10.7938 21.6235C10.7016 21.5809 10.6192 21.5187 10.5523 21.441C10.4854 21.3632 10.4355 21.2717 10.406 21.1725C10.3765 21.0734 10.3681 20.9689 10.3815 20.8661L10.382 20.8662V20.8575V19.6672V19.6033L10.3182 19.6004C9.85638 19.5787 9.40832 19.4328 9.01961 19.1774C8.63141 18.9223 8.31621 18.5671 8.10608 18.1476C8.04708 18.0101 8.01715 17.8613 8.01828 17.7111L8.01841 17.7111L8.01817 17.7069C8.01299 17.615 8.02673 17.5231 8.05847 17.4371C8.09021 17.3511 8.13924 17.2728 8.20233 17.2074C8.26542 17.1419 8.34118 17.0907 8.42469 17.057C8.5082 17.0233 8.59766 17.0077 8.68735 17.0113L8.68734 17.0115L8.69294 17.0113C8.84407 17.0047 8.99362 17.0456 9.12134 17.1286C9.24909 17.2117 9.34888 17.3328 9.407 17.4759L9.40679 17.476L9.40927 17.4809C9.57104 17.8009 9.82453 18.0635 10.1363 18.2338C10.4471 18.4035 10.801 18.4734 11.1515 18.4343C11.6169 18.4337 12.0126 18.3184 12.2942 18.1212C12.5775 17.9228 12.7457 17.6403 12.7457 17.3139C12.7457 16.9948 12.6407 16.7618 12.4053 16.5833C12.1764 16.4097 11.8281 16.291 11.3508 16.1814L11.3508 16.1814L11.3484 16.1809L10.4895 16.0169C10.4894 16.0169 10.4893 16.0169 10.4892 16.0168C9.68404 15.8541 9.09354 15.5777 8.70487 15.1983C8.31818 14.8208 8.12597 14.3363 8.12572 13.744C8.14746 13.1335 8.39088 12.5532 8.80851 12.1154C9.22638 11.6774 9.78882 11.4134 10.3866 11.3742L10.4492 11.3701V11.3074V10.035H10.4497L10.4486 10.0264C10.4353 9.92364 10.4436 9.81917 10.4731 9.72001C10.5026 9.62085 10.5525 9.52935 10.6194 9.45158C10.6863 9.37381 10.7687 9.31157 10.861 9.26897C10.9532 9.22637 11.0533 9.20436 11.1545 9.20436C11.2557 9.20436 11.3558 9.22637 11.448 9.26897C11.5403 9.31157 11.6226 9.37381 11.6896 9.45158C11.7565 9.52935 11.8064 9.62085 11.8359 9.72001C11.8653 9.81917 11.8737 9.92364 11.8604 10.0264L11.8598 10.0263V10.035V11.3211V11.3833L11.9218 11.3878C12.3854 11.4218 12.8306 11.5869 13.2072 11.8647C13.582 12.1411 13.8742 12.5182 14.0512 12.9541C14.071 13.0709 14.0706 13.1903 14.05 13.307L14.0487 13.3068L14.049 13.3202C14.051 13.4068 14.035 13.4928 14.0023 13.5727C13.9696 13.6526 13.9208 13.7244 13.8592 13.7837C13.7976 13.843 13.7245 13.8884 13.6448 13.9169C13.565 13.9455 13.4803 13.9567 13.3961 13.9498L13.3961 13.9493L13.3883 13.9496C13.232 13.9551 13.0776 13.9124 12.9452 13.827C12.8129 13.7416 12.7087 13.6174 12.6464 13.4705L12.6464 13.4705L12.6461 13.4697C12.5153 13.1718 12.296 12.9231 12.0187 12.7587C11.7424 12.5949 11.4226 12.5233 11.1042 12.554C10.6731 12.5545 10.3226 12.6558 10.078 12.8431C9.83081 13.0325 9.69755 13.3056 9.69755 13.6334C9.69755 13.7942 9.72298 13.9329 9.77971 14.053C9.83672 14.1736 9.92345 14.2716 10.0399 14.3534C10.2693 14.5146 10.618 14.6158 11.0941 14.7114C11.0942 14.7114 11.0942 14.7114 11.0943 14.7115L11.9535 14.8893L11.954 14.8894C12.8082 15.0593 13.4083 15.3193 13.7947 15.6831C14.1782 16.0443 14.3578 16.5143 14.3579 17.122C14.3509 17.7916 14.0839 18.431 13.6158 18.9004C13.1476 19.3699 12.5163 19.6312 11.8599 19.6276Z" stroke="url(#paint4_linear_796_1172)" stroke-opacity="0.5" stroke-width="0.133821"/>
</g>
<g filter="url(#filter2_bd_796_1172)">
<rect x="5.72852" y="5.1145" width="10.8282" height="1.45656" fill="url(#paint5_linear_796_1172)"/>
<rect x="5.79543" y="5.18141" width="10.6944" height="1.32274" stroke="url(#paint6_linear_796_1172)" stroke-opacity="0.5" stroke-width="0.133821"/>
</g>
</g>
<defs>
<filter id="filter0_bi_796_1172" x="-4.16634" y="-4.77046" width="30.5465" height="36.5005" filterUnits="userSpaceOnUse" color-interpolation-filters="sRGB">
<feFlood flood-opacity="0" result="BackgroundImageFix"/>
<feGaussianBlur in="BackgroundImageFix" stdDeviation="2.76139"/>
<feComposite in2="SourceAlpha" operator="in" result="effect1_backgroundBlur_796_1172"/>
<feBlend mode="normal" in="SourceGraphic" in2="effect1_backgroundBlur_796_1172" result="shape"/>
<feColorMatrix in="SourceAlpha" type="matrix" values="0 0 0 0 0 0 0 0 0 0 0 0 0 0 0 0 0 0 127 0" result="hardAlpha"/>
<feOffset dy="0.920464"/>
<feGaussianBlur stdDeviation="1.84093"/>
<feComposite in2="hardAlpha" operator="arithmetic" k2="-1" k3="1"/>
<feColorMatrix type="matrix" values="0 0 0 0 1 0 0 0 0 1 0 0 0 0 1 0 0 0 0.4 0"/>
<feBlend mode="normal" in2="shape" result="effect2_innerShadow_796_1172"/>
</filter>
<filter id="filter1_bd_796_1172" x="-2.08638" y="-0.899119" width="26.5478" height="32.6908" filterUnits="userSpaceOnUse" color-interpolation-filters="sRGB">
<feFlood flood-opacity="0" result="BackgroundImageFix"/>
<feGaussianBlur in="BackgroundImageFix" stdDeviation="5.01829"/>
<feComposite in2="SourceAlpha" operator="in" result="effect1_backgroundBlur_796_1172"/>
<feColorMatrix in="SourceAlpha" type="matrix" values="0 0 0 0 0 0 0 0 0 0 0 0 0 0 0 0 0 0 127 0" result="hardAlpha"/>
<feOffset dy="0.849659"/>
<feGaussianBlur stdDeviation="1.4161"/>
<feColorMatrix type="matrix" values="0 0 0 0 0.32549 0 0 0 0 0.796078 0 0 0 0 0.0862745 0 0 0 0.5 0"/>
<feBlend mode="normal" in2="effect1_backgroundBlur_796_1172" result="effect2_dropShadow_796_1172"/>
<feBlend mode="normal" in="SourceGraphic" in2="effect2_dropShadow_796_1172" result="shape"/>
</filter>
<filter id="filter2_bd_796_1172" x="-4.30805" y="-4.92207" width="30.9013" height="21.5297" filterUnits="userSpaceOnUse" color-interpolation-filters="sRGB">
<feFlood flood-opacity="0" result="BackgroundImageFix"/>
<feGaussianBlur in="BackgroundImageFix" stdDeviation="5.01829"/>
<feComposite in2="SourceAlpha" operator="in" result="effect1_backgroundBlur_796_1172"/>
<feColorMatrix in="SourceAlpha" type="matrix" values="0 0 0 0 0 0 0 0 0 0 0 0 0 0 0 0 0 0 127 0" result="hardAlpha"/>
<feOffset dy="0.849659"/>
<feGaussianBlur stdDeviation="1.4161"/>
<feColorMatrix type="matrix" values="0 0 0 0 0.32549 0 0 0 0 0.796078 0 0 0 0 0.0862745 0 0 0 0.5 0"/>
<feBlend mode="normal" in2="effect1_backgroundBlur_796_1172" result="effect2_dropShadow_796_1172"/>
<feBlend mode="normal" in="SourceGraphic" in2="effect2_dropShadow_796_1172" result="shape"/>
</filter>
<linearGradient id="paint0_linear_796_1172" x1="6.55273" y1="14.5822" x2="24.4971" y2="14.5822" gradientUnits="userSpaceOnUse">
<stop stop-color="#E2FE26"/>
<stop offset="1" stop-color="#00E1FF"/>
</linearGradient>
<linearGradient id="paint1_linear_796_1172" x1="4.17314" y1="8.57441" x2="21.7288" y2="10.157" gradientUnits="userSpaceOnUse">
<stop stop-color="#FFEB00"/>
<stop offset="1" stop-color="#2DC41A"/>
</linearGradient>
<linearGradient id="paint2_linear_796_1172" x1="4.17314" y1="8.57441" x2="21.7288" y2="10.157" gradientUnits="userSpaceOnUse">
<stop stop-color="#FFEB00"/>
<stop offset="1" stop-color="#2DC41A"/>
</linearGradient>
<linearGradient id="paint3_linear_796_1172" x1="13.9657" y1="11.4159" x2="6.74802" y2="11.5367" gradientUnits="userSpaceOnUse">
<stop stop-color="white"/>
<stop offset="1" stop-color="white" stop-opacity="0.2"/>
</linearGradient>
<linearGradient id="paint4_linear_796_1172" x1="8.64765" y1="13.3701" x2="14.1456" y2="13.3856" gradientUnits="userSpaceOnUse">
<stop stop-color="white"/>
<stop offset="1" stop-color="white" stop-opacity="0"/>
</linearGradient>
<linearGradient id="paint5_linear_796_1172" x1="15.789" y1="5.37753" x2="4.38461" y2="8.14177" gradientUnits="userSpaceOnUse">
<stop stop-color="white"/>
<stop offset="1" stop-color="white" stop-opacity="0.2"/>
</linearGradient>
<linearGradient id="paint6_linear_796_1172" x1="6.89495" y1="5.60311" x2="16.0744" y2="5.97982" gradientUnits="userSpaceOnUse">
<stop stop-color="white"/>
<stop offset="1" stop-color="white" stop-opacity="0"/>
</linearGradient>
<clipPath id="clip0_796_1172">
<rect width="25.4898" height="25.4898" fill="white" transform="translate(0.560547 0.744873)"/>
</clipPath>
</defs>
</svg>
