<svg width="45" height="46" viewBox="0 0 45 46" fill="none" xmlns="http://www.w3.org/2000/svg">
<g clip-path="url(#clip0_44_10721)">
<path d="M38.2808 18.0995C38.0519 17.5694 37.9721 16.9859 38.0501 16.4131C38.128 15.8402 38.3608 15.3001 38.7228 14.8519L42.2588 10.464C41.9703 9.92405 41.5461 9.47027 41.0289 9.14825C40.5116 8.82624 39.9195 8.64731 39.3121 8.62949C37.274 8.62949 36.4145 9.24925 34.7202 8.62949C33.0258 8.00972 32.682 6.89415 31.4051 6.59666C30.1282 6.29918 29.3179 7.21643 27.5499 6.89416C25.7818 6.57188 25.3153 5.62984 23.5227 4.6878C22.9702 4.42744 22.3597 4.3179 21.7522 4.3701C21.1447 4.4223 20.5613 4.63442 20.0603 4.98529L21.239 10.5136C21.3618 11.0782 21.3282 11.666 21.1419 12.2126C20.9557 12.7592 20.6239 13.2435 20.1831 13.6124C15.8174 16.9648 12.5842 21.597 10.9256 26.8754C8.76467 35.9735 13.3812 42.7661 22.3195 44.9229C31.2578 47.0797 38.4281 43.138 40.589 34.0398C41.446 28.6131 40.6407 23.0515 38.2808 18.0995Z" fill="url(#paint0_linear_44_10721)"/>
<g filter="url(#filter0_bi_44_10721)">
<path d="M29.1944 11.3692C28.8002 10.8453 28.5561 10.2204 28.4892 9.56384C28.4222 8.90727 28.535 8.24465 28.815 7.64938L31.5654 1.85228C31.1083 1.32772 30.5234 0.935354 29.8698 0.714813C29.2162 0.494273 28.517 0.453375 27.8429 0.596244C25.6142 1.17595 24.8318 2.06967 22.8401 1.9489C20.8485 1.82812 20.1609 0.596244 18.6909 0.596244C17.2208 0.596244 16.5332 1.85228 14.5416 1.9489C12.55 2.04551 11.7438 1.17595 9.53879 0.596244C8.8647 0.453375 8.16553 0.494273 7.51192 0.714813C6.85831 0.935354 6.27341 1.32772 5.81631 1.85228L8.47184 7.64938C8.75519 8.24248 8.87194 8.90388 8.80918 9.5604C8.74641 10.2169 8.50656 10.8429 8.11619 11.3692C5.74518 14.4127 1.40625 21.2243 1.40625 28.5431C1.40625 39.1953 8.21103 45.4513 18.6197 45.4513C29.0284 45.4513 35.8332 39.147 35.8332 28.5431C35.9043 21.2243 31.4706 14.4127 29.1944 11.3692Z" fill="#F1F1F1" fill-opacity="0.2"/>
<path d="M29.1944 11.3692C28.8002 10.8453 28.5561 10.2204 28.4892 9.56384C28.4222 8.90727 28.535 8.24465 28.815 7.64938L31.5654 1.85228C31.1083 1.32772 30.5234 0.935354 29.8698 0.714813C29.2162 0.494273 28.517 0.453375 27.8429 0.596244C25.6142 1.17595 24.8318 2.06967 22.8401 1.9489C20.8485 1.82812 20.1609 0.596244 18.6909 0.596244C17.2208 0.596244 16.5332 1.85228 14.5416 1.9489C12.55 2.04551 11.7438 1.17595 9.53879 0.596244C8.8647 0.453375 8.16553 0.494273 7.51192 0.714813C6.85831 0.935354 6.27341 1.32772 5.81631 1.85228L8.47184 7.64938C8.75519 8.24248 8.87194 8.90388 8.80918 9.5604C8.74641 10.2169 8.50656 10.8429 8.11619 11.3692C5.74518 14.4127 1.40625 21.2243 1.40625 28.5431C1.40625 39.1953 8.21103 45.4513 18.6197 45.4513C29.0284 45.4513 35.8332 39.147 35.8332 28.5431C35.9043 21.2243 31.4706 14.4127 29.1944 11.3692Z" fill="url(#paint1_linear_44_10721)" fill-opacity="0.1"/>
<path d="M28.544 7.52079L28.5436 7.52167C28.2403 8.16639 28.1182 8.88371 28.1907 9.59428C28.2632 10.3047 28.5273 10.9813 28.9544 11.5492C31.2256 14.5861 35.6033 21.3279 35.5332 28.5402V28.5431C35.5332 33.7791 33.8548 37.9228 30.9212 40.7579C27.9863 43.5944 23.7637 45.1513 18.6197 45.1513C13.4751 45.1513 9.25265 43.6062 6.31799 40.7758C3.38484 37.947 1.70625 33.8036 1.70625 28.5431C1.70625 21.3274 5.99291 14.5828 8.35285 11.5536L8.35291 11.5536L8.35713 11.5479C8.78028 10.9775 9.03988 10.2995 9.10781 9.58895C9.17567 8.87926 9.04973 8.16411 8.7436 7.5223L6.17199 1.90838C6.57303 1.49407 7.06501 1.18223 7.60784 0.999068C8.20832 0.796453 8.85031 0.758297 9.46961 0.888253C10.2669 1.09838 10.8671 1.34349 11.4284 1.57269C11.6258 1.6533 11.8184 1.73193 12.013 1.80639C12.7628 2.09323 13.5053 2.29952 14.5561 2.24854C15.6214 2.19686 16.3402 1.83158 16.9542 1.50038C16.9804 1.4863 17.0062 1.47233 17.0318 1.45849C17.6135 1.14411 18.0722 0.896244 18.6909 0.896244C19.3153 0.896244 19.7774 1.14349 20.364 1.45741C20.3854 1.46881 20.4068 1.4803 20.4285 1.49188C21.0417 1.81955 21.7589 2.18388 22.822 2.24835C23.8752 2.31221 24.6135 2.10523 25.3612 1.81491C25.5499 1.74165 25.7367 1.66428 25.9283 1.58496C26.4933 1.35103 27.0991 1.10021 27.9117 0.888331C28.5312 0.758281 29.1733 0.796412 29.7739 0.999068C30.3158 1.18192 30.807 1.49303 31.2077 1.9063L28.544 7.52079Z" stroke="url(#paint2_linear_44_10721)" stroke-opacity="0.1" stroke-width="0.6"/>
</g>
<g filter="url(#filter1_bd_44_10721)">
<path d="M19.9476 33.9541V36.0072C19.9732 36.205 19.9571 36.406 19.9004 36.5969C19.8436 36.7879 19.7475 36.9642 19.6184 37.1142C19.4893 37.2642 19.3303 37.3844 19.152 37.4668C18.9736 37.5491 18.7801 37.5917 18.5843 37.5917C18.3884 37.5917 18.1949 37.5491 18.0166 37.4668C17.8382 37.3844 17.6792 37.2642 17.5501 37.1142C17.421 36.9642 17.3249 36.7879 17.2681 36.5969C17.2114 36.406 17.1953 36.205 17.2209 36.0072V33.9058C16.3843 33.8665 15.5728 33.6022 14.869 33.1397C14.1652 32.6773 13.5941 32.0332 13.2139 31.2729C13.1024 31.0141 13.0459 30.7343 13.048 30.4516C13.0379 30.2734 13.0646 30.095 13.1262 29.9278C13.1879 29.7607 13.2832 29.6086 13.406 29.4812C13.5288 29.3538 13.6764 29.254 13.8393 29.1882C14.0023 29.1223 14.1769 29.092 14.352 29.099C14.6435 29.0863 14.9318 29.1653 15.1778 29.3251C15.4238 29.485 15.6156 29.7181 15.7272 29.9927C16.0021 30.5366 16.4327 30.9826 16.962 31.2716C17.4912 31.5606 18.0942 31.679 18.691 31.6111C20.3032 31.6111 21.3939 30.814 21.3939 29.7512C21.3939 28.6884 20.7063 28.2536 19.0229 27.8671L17.5055 27.5773C14.6365 26.9976 13.2376 25.5966 13.2376 23.4468C13.2766 22.3397 13.7178 21.2867 14.4757 20.4922C15.2336 19.6978 16.2542 19.2185 17.3395 19.1473V16.9009C17.3138 16.7032 17.3299 16.5021 17.3867 16.3112C17.4435 16.1203 17.5396 15.9439 17.6687 15.7939C17.7977 15.6439 17.9568 15.5237 18.1351 15.4414C18.3134 15.359 18.507 15.3164 18.7028 15.3164C18.8986 15.3164 19.0922 15.359 19.2705 15.4414C19.4489 15.5237 19.6079 15.6439 19.737 15.7939C19.866 15.9439 19.9622 16.1203 20.0189 16.3112C20.0757 16.5021 20.0918 16.7032 20.0661 16.9009V19.1715C20.9069 19.2331 21.7141 19.5325 22.3968 20.036C23.0796 20.5396 23.6109 21.2273 23.9309 22.0217C23.9704 22.2453 23.9704 22.4744 23.9309 22.698C23.9347 22.8671 23.9037 23.0352 23.8397 23.1912C23.7758 23.3473 23.6804 23.488 23.5597 23.6041C23.439 23.7203 23.2957 23.8093 23.1391 23.8654C22.9825 23.9215 22.816 23.9435 22.6505 23.9299C22.3503 23.9404 22.054 23.8584 21.8002 23.6947C21.5464 23.5309 21.347 23.293 21.2279 23.0121C21.0069 22.5085 20.6363 22.0884 20.1683 21.8111C19.7004 21.5337 19.1587 21.4131 18.6198 21.4662C17.1261 21.4662 16.2488 22.1666 16.2488 23.2536C16.2488 24.3405 16.9364 24.7029 18.6198 25.041L20.1373 25.355C23.1721 25.9589 24.4762 27.215 24.4762 29.413C24.4637 30.626 23.9803 31.7846 23.1317 32.6355C22.2831 33.4865 21.1383 33.9605 19.9476 33.9541Z" fill="url(#paint3_linear_44_10721)"/>
<path d="M19.9482 33.836L19.8295 33.8353V33.9541V36.0072V36.0148L19.8304 36.0224C19.854 36.2038 19.8392 36.3882 19.7872 36.5633C19.7351 36.7383 19.647 36.8999 19.5289 37.0372C19.4107 37.1745 19.2653 37.2843 19.1024 37.3595C18.9396 37.4347 18.7629 37.4736 18.5843 37.4736C18.4056 37.4736 18.2289 37.4347 18.0661 37.3595C17.9032 37.2843 17.7578 37.1745 17.6397 37.0372C17.5215 36.8999 17.4334 36.7383 17.3814 36.5633C17.3293 36.3882 17.3145 36.2038 17.3381 36.0224L17.3391 36.0148V36.0072V33.9058V33.793L17.2265 33.7878C16.4111 33.7495 15.6201 33.4919 14.9339 33.041C14.2485 32.5907 13.6921 31.9636 13.3211 31.2231C13.2169 30.9803 13.1641 30.7177 13.1661 30.4525L13.1663 30.4525L13.1659 30.445C13.1568 30.2829 13.181 30.1206 13.2371 29.9687C13.2931 29.8168 13.3796 29.6787 13.491 29.5632C13.6024 29.4476 13.7361 29.3572 13.8836 29.2977C14.031 29.2381 14.1889 29.2107 14.3473 29.217L14.3473 29.2174L14.3572 29.217C14.624 29.2054 14.888 29.2776 15.1135 29.4242C15.339 29.5707 15.5152 29.7846 15.6178 30.0372L15.6174 30.0373L15.6218 30.046C15.9074 30.611 16.3549 31.0746 16.9054 31.3752C17.4539 31.6748 18.0788 31.7982 18.6976 31.7292C19.5191 31.7281 20.2177 31.5246 20.7148 31.1764C21.215 30.8261 21.512 30.3275 21.512 29.7512C21.512 29.1879 21.3266 28.7765 20.911 28.4614C20.5069 28.155 19.892 27.9454 19.0493 27.752L19.0493 27.7519L19.0451 27.7511L17.5288 27.4615C17.5287 27.4614 17.5285 27.4614 17.5283 27.4614C16.1069 27.1741 15.0644 26.6861 14.3782 26.0163C13.6955 25.3499 13.3562 24.4946 13.3558 23.4489C13.3941 22.3711 13.8239 21.3466 14.5612 20.5738C15.2989 19.8005 16.2918 19.3344 17.3472 19.2652L17.4576 19.258V19.1473V16.9009V16.8933L17.4566 16.8857C17.4331 16.7043 17.4479 16.5199 17.4999 16.3449C17.552 16.1698 17.6401 16.0083 17.7582 15.871C17.8763 15.7337 18.0217 15.6238 18.1846 15.5486C18.3475 15.4734 18.5242 15.4345 18.7028 15.4345C18.8815 15.4345 19.0581 15.4734 19.221 15.5486C19.3839 15.6238 19.5293 15.7337 19.6474 15.871C19.7655 16.0083 19.8536 16.1698 19.9057 16.3449C19.9578 16.5199 19.9725 16.7043 19.949 16.8857L19.948 16.8933V16.9009V19.1715V19.2812L20.0575 19.2893C20.8759 19.3492 21.6618 19.6407 22.3267 20.1311C22.9884 20.6191 23.5043 21.2849 23.8166 22.0543C23.8517 22.2605 23.851 22.4714 23.8145 22.6775L23.8125 22.689L23.8128 22.7007C23.8163 22.8536 23.7882 23.0055 23.7304 23.1465C23.6727 23.2875 23.5866 23.4143 23.4778 23.519C23.369 23.6236 23.24 23.7037 23.0992 23.7542C22.9584 23.8046 22.8089 23.8244 22.6602 23.8122L22.6603 23.8114L22.6464 23.8119C22.3704 23.8215 22.0978 23.7461 21.8642 23.5954C21.6305 23.4446 21.4466 23.2254 21.3367 22.966L21.3367 22.966L21.3361 22.9646C21.1053 22.4387 20.718 21.9996 20.2286 21.7094C19.7407 21.4203 19.1762 21.2939 18.614 21.348C17.853 21.3489 17.2342 21.5278 16.8023 21.8585C16.366 22.1927 16.1307 22.6749 16.1307 23.2536C16.1307 23.5376 16.1756 23.7823 16.2758 23.9943C16.3764 24.2073 16.5295 24.3802 16.7351 24.5247C17.14 24.8093 17.7557 24.9879 18.5962 25.1568C18.5963 25.1568 18.5965 25.1568 18.5966 25.1568L20.1133 25.4707L20.1142 25.4709C21.6222 25.771 22.6818 26.2299 23.3638 26.8722C24.041 27.5099 24.358 28.3397 24.3581 29.4124C24.3457 30.5947 23.8745 31.7234 23.048 32.5521C22.2215 33.3809 21.107 33.8422 19.9482 33.836Z" stroke="url(#paint4_linear_44_10721)" stroke-opacity="0.5" stroke-width="0.236249"/>
</g>
<g filter="url(#filter2_bd_44_10721)">
<rect x="9.12402" y="8.21387" width="19.1162" height="2.57143" fill="url(#paint5_linear_44_10721)"/>
<rect x="9.24215" y="8.33199" width="18.88" height="2.33518" stroke="url(#paint6_linear_44_10721)" stroke-opacity="0.5" stroke-width="0.236249"/>
</g>
</g>
<defs>
<filter id="filter0_bi_44_10721" x="-8.34375" y="-9.2373" width="53.9277" height="64.4385" filterUnits="userSpaceOnUse" color-interpolation-filters="sRGB">
<feFlood flood-opacity="0" result="BackgroundImageFix"/>
<feGaussianBlur in="BackgroundImageFix" stdDeviation="4.875"/>
<feComposite in2="SourceAlpha" operator="in" result="effect1_backgroundBlur_44_10721"/>
<feBlend mode="normal" in="SourceGraphic" in2="effect1_backgroundBlur_44_10721" result="shape"/>
<feColorMatrix in="SourceAlpha" type="matrix" values="0 0 0 0 0 0 0 0 0 0 0 0 0 0 0 0 0 0 127 0" result="hardAlpha"/>
<feOffset dy="1.625"/>
<feGaussianBlur stdDeviation="3.25"/>
<feComposite in2="hardAlpha" operator="arithmetic" k2="-1" k3="1"/>
<feColorMatrix type="matrix" values="0 0 0 0 1 0 0 0 0 1 0 0 0 0 1 0 0 0 0.4 0"/>
<feBlend mode="normal" in2="shape" result="effect2_innerShadow_44_10721"/>
</filter>
<filter id="filter1_bd_44_10721" x="-4.67281" y="-2.4023" width="46.8676" height="57.7128" filterUnits="userSpaceOnUse" color-interpolation-filters="sRGB">
<feFlood flood-opacity="0" result="BackgroundImageFix"/>
<feGaussianBlur in="BackgroundImageFix" stdDeviation="8.85935"/>
<feComposite in2="SourceAlpha" operator="in" result="effect1_backgroundBlur_44_10721"/>
<feColorMatrix in="SourceAlpha" type="matrix" values="0 0 0 0 0 0 0 0 0 0 0 0 0 0 0 0 0 0 127 0" result="hardAlpha"/>
<feOffset dy="1.5"/>
<feGaussianBlur stdDeviation="2.5"/>
<feColorMatrix type="matrix" values="0 0 0 0 0.32549 0 0 0 0 0.796078 0 0 0 0 0.0862745 0 0 0 0.5 0"/>
<feBlend mode="normal" in2="effect1_backgroundBlur_44_10721" result="effect2_dropShadow_44_10721"/>
<feBlend mode="normal" in="SourceGraphic" in2="effect2_dropShadow_44_10721" result="shape"/>
</filter>
<filter id="filter2_bd_44_10721" x="-8.59468" y="-9.50484" width="54.5536" height="38.0087" filterUnits="userSpaceOnUse" color-interpolation-filters="sRGB">
<feFlood flood-opacity="0" result="BackgroundImageFix"/>
<feGaussianBlur in="BackgroundImageFix" stdDeviation="8.85935"/>
<feComposite in2="SourceAlpha" operator="in" result="effect1_backgroundBlur_44_10721"/>
<feColorMatrix in="SourceAlpha" type="matrix" values="0 0 0 0 0 0 0 0 0 0 0 0 0 0 0 0 0 0 127 0" result="hardAlpha"/>
<feOffset dy="1.5"/>
<feGaussianBlur stdDeviation="2.5"/>
<feColorMatrix type="matrix" values="0 0 0 0 0.32549 0 0 0 0 0.796078 0 0 0 0 0.0862745 0 0 0 0.5 0"/>
<feBlend mode="normal" in2="effect1_backgroundBlur_44_10721" result="effect2_dropShadow_44_10721"/>
<feBlend mode="normal" in="SourceGraphic" in2="effect2_dropShadow_44_10721" result="shape"/>
</filter>
<linearGradient id="paint0_linear_44_10721" x1="15.0002" y1="17.0002" x2="43.6769" y2="19.6133" gradientUnits="userSpaceOnUse">
<stop stop-color="#FFEB00"/>
<stop offset="1" stop-color="#2DC41A"/>
</linearGradient>
<linearGradient id="paint1_linear_44_10721" x1="6.37889" y1="14.3219" x2="37.3719" y2="17.1159" gradientUnits="userSpaceOnUse">
<stop stop-color="#FFEB00"/>
<stop offset="1" stop-color="#2DC41A"/>
</linearGradient>
<linearGradient id="paint2_linear_44_10721" x1="6.37889" y1="14.3219" x2="37.3719" y2="17.1159" gradientUnits="userSpaceOnUse">
<stop stop-color="#FFEB00"/>
<stop offset="1" stop-color="#2DC41A"/>
</linearGradient>
<linearGradient id="paint3_linear_44_10721" x1="23.6658" y1="19.3389" x2="10.9236" y2="19.5521" gradientUnits="userSpaceOnUse">
<stop stop-color="white"/>
<stop offset="1" stop-color="white" stop-opacity="0.2"/>
</linearGradient>
<linearGradient id="paint4_linear_44_10721" x1="14.2772" y1="22.7887" x2="23.9833" y2="22.8162" gradientUnits="userSpaceOnUse">
<stop stop-color="white"/>
<stop offset="1" stop-color="white" stop-opacity="0"/>
</linearGradient>
<linearGradient id="paint5_linear_44_10721" x1="26.8849" y1="8.67822" x2="6.75147" y2="13.5582" gradientUnits="userSpaceOnUse">
<stop stop-color="white"/>
<stop offset="1" stop-color="white" stop-opacity="0.2"/>
</linearGradient>
<linearGradient id="paint6_linear_44_10721" x1="11.1833" y1="9.07646" x2="27.3888" y2="9.74151" gradientUnits="userSpaceOnUse">
<stop stop-color="white"/>
<stop offset="1" stop-color="white" stop-opacity="0"/>
</linearGradient>
<clipPath id="clip0_44_10721">
<rect width="45" height="45" fill="white" transform="translate(0 0.5)"/>
</clipPath>
</defs>
</svg>
