<svg width="27" height="23" viewBox="0 0 27 23" fill="none" xmlns="http://www.w3.org/2000/svg">
<path d="M20.4093 18.628H4.08528C2.23727 18.628 0.697266 17.1165 0.697266 15.3026V3.66347C0.697266 1.84959 2.23727 0.338013 4.08528 0.338013H20.4093C22.2574 0.338013 23.7974 1.84959 23.7974 3.66347V15.4537C23.6434 17.1165 22.2574 18.628 20.4093 18.628Z" fill="url(#paint0_linear_796_1126)"/>
<g filter="url(#filter0_bi_796_1126)">
<path d="M22.7586 22.6041H3.97665C2.1879 22.6041 0.697266 21.1049 0.697266 19.3059V7.61229C0.697266 5.81327 2.1879 4.31409 3.97665 4.31409H22.9076C24.6964 4.31409 26.187 5.81327 26.187 7.61229V19.3059C26.038 21.1049 24.5473 22.6041 22.7586 22.6041Z" fill="#F1F1F1" fill-opacity="0.1"/>
<path d="M22.7586 22.6041H3.97665C2.1879 22.6041 0.697266 21.1049 0.697266 19.3059V7.61229C0.697266 5.81327 2.1879 4.31409 3.97665 4.31409H22.9076C24.6964 4.31409 26.187 5.81327 26.187 7.61229V19.3059C26.038 21.1049 24.5473 22.6041 22.7586 22.6041Z" fill="url(#paint1_linear_796_1126)" fill-opacity="0.1"/>
<path d="M22.7586 22.4342H3.97665C2.28266 22.4342 0.867197 21.012 0.867197 19.3059V7.61229C0.867197 5.9062 2.28266 4.48402 3.97665 4.48402H22.9076C24.6016 4.48402 26.0171 5.9062 26.0171 7.61229V19.2988C25.8714 21.0156 24.4479 22.4342 22.7586 22.4342Z" stroke="url(#paint2_linear_796_1126)" stroke-opacity="0.1" stroke-width="0.339864"/>
</g>
<g filter="url(#filter1_bd_796_1126)">
<path d="M26.1872 16.2423H18.3373C16.8341 16.2423 15.832 14.9435 15.832 13.459C15.832 11.7891 17.0012 10.6758 18.3373 10.6758H26.1872V16.2423Z" fill="url(#paint3_linear_796_1126)"/>
<path d="M26.1213 16.1763H18.3373C16.8796 16.1763 15.898 14.9168 15.898 13.459C15.898 11.8218 17.0412 10.7417 18.3373 10.7417H26.1213V16.1763Z" stroke="url(#paint4_linear_796_1126)" stroke-opacity="0.5" stroke-width="0.131933"/>
</g>
<g filter="url(#filter2_bd_796_1126)">
<path d="M19.4162 15.4472C20.516 15.4472 21.4076 14.5571 21.4076 13.4591C21.4076 12.3611 20.516 11.4711 19.4162 11.4711C18.3164 11.4711 17.4248 12.3611 17.4248 13.4591C17.4248 14.5571 18.3164 15.4472 19.4162 15.4472Z" fill="url(#paint5_linear_796_1126)"/>
<path d="M21.3407 13.4591C21.3407 14.52 20.4792 15.3803 19.4162 15.3803C18.3532 15.3803 17.4917 14.52 17.4917 13.4591C17.4917 12.3982 18.3532 11.538 19.4162 11.538C20.4792 11.538 21.3407 12.3982 21.3407 13.4591Z" stroke="url(#paint6_linear_796_1126)" stroke-opacity="0.5" stroke-width="0.133821"/>
</g>
<defs>
<filter id="filter0_bi_796_1126" x="-4.82552" y="-1.2087" width="36.5358" height="29.3356" filterUnits="userSpaceOnUse" color-interpolation-filters="sRGB">
<feFlood flood-opacity="0" result="BackgroundImageFix"/>
<feGaussianBlur in="BackgroundImageFix" stdDeviation="2.76139"/>
<feComposite in2="SourceAlpha" operator="in" result="effect1_backgroundBlur_796_1126"/>
<feBlend mode="normal" in="SourceGraphic" in2="effect1_backgroundBlur_796_1126" result="shape"/>
<feColorMatrix in="SourceAlpha" type="matrix" values="0 0 0 0 0 0 0 0 0 0 0 0 0 0 0 0 0 0 127 0" result="hardAlpha"/>
<feOffset dy="0.920464"/>
<feGaussianBlur stdDeviation="1.84093"/>
<feComposite in2="hardAlpha" operator="arithmetic" k2="-1" k3="1"/>
<feColorMatrix type="matrix" values="0 0 0 0 1 0 0 0 0 1 0 0 0 0 1 0 0 0 0.4 0"/>
<feBlend mode="normal" in2="shape" result="effect2_innerShadow_796_1126"/>
</filter>
<filter id="filter1_bd_796_1126" x="5.93704" y="0.780794" width="30.1454" height="25.3565" filterUnits="userSpaceOnUse" color-interpolation-filters="sRGB">
<feFlood flood-opacity="0" result="BackgroundImageFix"/>
<feGaussianBlur in="BackgroundImageFix" stdDeviation="4.94749"/>
<feComposite in2="SourceAlpha" operator="in" result="effect1_backgroundBlur_796_1126"/>
<feColorMatrix in="SourceAlpha" type="matrix" values="0 0 0 0 0 0 0 0 0 0 0 0 0 0 0 0 0 0 127 0" result="hardAlpha"/>
<feOffset dx="3.29833" dy="1.31933"/>
<feGaussianBlur stdDeviation="1.64916"/>
<feColorMatrix type="matrix" values="0 0 0 0 0.15375 0 0 0 0 0.522433 0 0 0 0 0.9 0 0 0 0.4 0"/>
<feBlend mode="normal" in2="effect1_backgroundBlur_796_1126" result="effect2_dropShadow_796_1126"/>
<feBlend mode="normal" in="SourceGraphic" in2="effect2_dropShadow_796_1126" result="shape"/>
</filter>
<filter id="filter2_bd_796_1126" x="7.38823" y="1.4345" width="24.0556" height="24.0492" filterUnits="userSpaceOnUse" color-interpolation-filters="sRGB">
<feFlood flood-opacity="0" result="BackgroundImageFix"/>
<feGaussianBlur in="BackgroundImageFix" stdDeviation="5.01829"/>
<feComposite in2="SourceAlpha" operator="in" result="effect1_backgroundBlur_796_1126"/>
<feColorMatrix in="SourceAlpha" type="matrix" values="0 0 0 0 0 0 0 0 0 0 0 0 0 0 0 0 0 0 127 0" result="hardAlpha"/>
<feOffset dx="3.34552" dy="1.33821"/>
<feGaussianBlur stdDeviation="1.67276"/>
<feColorMatrix type="matrix" values="0 0 0 0 0.15375 0 0 0 0 0.522433 0 0 0 0 0.9 0 0 0 0.4 0"/>
<feBlend mode="normal" in2="effect1_backgroundBlur_796_1126" result="effect2_dropShadow_796_1126"/>
<feBlend mode="normal" in="SourceGraphic" in2="effect2_dropShadow_796_1126" result="shape"/>
</filter>
<linearGradient id="paint0_linear_796_1126" x1="0.828516" y1="9.48309" x2="23.7974" y2="9.48309" gradientUnits="userSpaceOnUse">
<stop stop-color="#E2FE26"/>
<stop offset="1" stop-color="#00E1FF"/>
</linearGradient>
<linearGradient id="paint1_linear_796_1126" x1="0.697266" y1="4.24849" x2="26.1366" y2="22.4287" gradientUnits="userSpaceOnUse">
<stop stop-color="#FFA3DB"/>
<stop offset="1" stop-color="#BF82EE"/>
</linearGradient>
<linearGradient id="paint2_linear_796_1126" x1="1.49382" y1="5.14545" x2="26.187" y2="5.14545" gradientUnits="userSpaceOnUse">
<stop stop-color="#FFA3DB"/>
<stop offset="1" stop-color="#C082ED"/>
</linearGradient>
<linearGradient id="paint3_linear_796_1126" x1="25.4531" y1="11.681" x2="13.9484" y2="12.3788" gradientUnits="userSpaceOnUse">
<stop stop-color="white"/>
<stop offset="1" stop-color="white" stop-opacity="0.2"/>
</linearGradient>
<linearGradient id="paint4_linear_796_1126" x1="16.9475" y1="12.5431" x2="25.7399" y2="12.6334" gradientUnits="userSpaceOnUse">
<stop stop-color="white"/>
<stop offset="1" stop-color="white" stop-opacity="0"/>
</linearGradient>
<linearGradient id="paint5_linear_796_1126" x1="21.1252" y1="12.1891" x2="16.6888" y2="12.334" gradientUnits="userSpaceOnUse">
<stop stop-color="white"/>
<stop offset="1" stop-color="white" stop-opacity="0.2"/>
</linearGradient>
<linearGradient id="paint6_linear_796_1126" x1="17.8538" y1="12.8049" x2="21.2358" y2="12.8236" gradientUnits="userSpaceOnUse">
<stop stop-color="white"/>
<stop offset="1" stop-color="white" stop-opacity="0"/>
</linearGradient>
</defs>
</svg>
