<svg width="229" height="36" viewBox="0 0 229 36" fill="none" xmlns="http://www.w3.org/2000/svg">
<path d="M12.2538 20.3658C11.2001 16.3385 11.1298 7.18242 19.2789 2.77595C27.2881 -1.55491 33.9175 3.02781 36.3658 5.99786C20.6845 -2.19963 14.362 9.1719 15.4158 15.7461C24.9698 9.0653 44.4526 5.49985 52.9997 4.55222C35.8586 7.3951 18.6937 16.2791 12.2538 20.3658Z" fill="#0066B2"/>
<path d="M36.4902 6.15188C36.45 6.10107 36.4086 6.04971 36.3658 5.99786M36.3658 5.99786C33.9175 3.02781 27.2881 -1.55491 19.2789 2.77595C11.1298 7.18242 11.2001 16.3385 12.2538 20.3658C18.6937 16.2791 35.8586 7.3951 52.9997 4.55222C44.4526 5.49985 24.9698 9.0653 15.4158 15.7461C14.362 9.1719 20.6845 -2.19963 36.3658 5.99786Z" stroke="#0066B2" stroke-width="0.5"/>
<path d="M1 35.4283C14.0526 22.8804 22.4934 17.7587 39.5665 11.4004C41.398 30.9096 27.5328 31.0052 20.3713 28.6144C29.5286 30.2282 36.925 24.1316 36.5728 16.2418C22.4689 21.1733 14.6926 25.5241 1 35.4283Z" fill="#0066B2" stroke="#0066B2" stroke-width="0.5"/>
<path d="M77.9043 22.2305C77.9043 22.9323 77.8132 23.5658 77.6309 24.1309C77.4577 24.6868 77.2253 25.179 76.9336 25.6074C76.6419 26.0358 76.3001 26.4004 75.9082 26.7012C75.5163 27.002 75.1107 27.248 74.6914 27.4395C74.2721 27.6309 73.8438 27.7721 73.4062 27.8633C72.9779 27.9544 72.5723 28 72.1895 28H58.4766V24.4453H72.1895C72.873 24.4453 73.4017 24.2448 73.7754 23.8438C74.1582 23.4427 74.3496 22.9049 74.3496 22.2305C74.3496 21.9023 74.2995 21.6016 74.1992 21.3281C74.099 21.0547 73.9531 20.8177 73.7617 20.6172C73.5794 20.4167 73.3516 20.2617 73.0781 20.1523C72.8138 20.043 72.5176 19.9883 72.1895 19.9883H64.0137C63.4395 19.9883 62.8197 19.888 62.1543 19.6875C61.4889 19.4779 60.8691 19.1452 60.2949 18.6895C59.7298 18.2337 59.2559 17.6367 58.873 16.8984C58.4993 16.1602 58.3125 15.2578 58.3125 14.1914C58.3125 13.125 58.4993 12.2272 58.873 11.498C59.2559 10.7598 59.7298 10.1628 60.2949 9.70703C60.8691 9.24219 61.4889 8.90951 62.1543 8.70898C62.8197 8.49935 63.4395 8.39453 64.0137 8.39453H76.1133V11.9492H64.0137C63.3392 11.9492 62.8105 12.1543 62.4277 12.5645C62.054 12.9746 61.8672 13.5169 61.8672 14.1914C61.8672 14.875 62.054 15.4173 62.4277 15.8184C62.8105 16.2103 63.3392 16.4062 64.0137 16.4062H72.1895H72.2168C72.5996 16.4154 73.0052 16.4701 73.4336 16.5703C73.862 16.6615 74.2858 16.8073 74.7051 17.0078C75.1335 17.2083 75.5391 17.4635 75.9219 17.7734C76.3047 18.0742 76.6419 18.4388 76.9336 18.8672C77.2344 19.2956 77.4714 19.7878 77.6445 20.3438C77.8177 20.8997 77.9043 21.5286 77.9043 22.2305ZM101.434 20.0703C101.434 21.2643 101.229 22.3626 100.818 23.3652C100.408 24.3678 99.8385 25.2337 99.1094 25.9629C98.3802 26.6921 97.5143 27.2617 96.5117 27.6719C95.5182 28.0729 94.4336 28.2734 93.2578 28.2734H88.4453C87.2695 28.2734 86.1803 28.0729 85.1777 27.6719C84.1751 27.2617 83.3092 26.6921 82.5801 25.9629C81.8509 25.2337 81.2767 24.3678 80.8574 23.3652C80.4473 22.3626 80.2422 21.2643 80.2422 20.0703V16.3242C80.2422 15.1393 80.4473 14.0456 80.8574 13.043C81.2767 12.0312 81.8509 11.1654 82.5801 10.4453C83.3092 9.71615 84.1751 9.14648 85.1777 8.73633C86.1803 8.32617 87.2695 8.12109 88.4453 8.12109H93.2578C94.4336 8.12109 95.5182 8.32617 96.5117 8.73633C97.5143 9.14648 98.3802 9.71615 99.1094 10.4453C99.8385 11.1654 100.408 12.0312 100.818 13.043C101.229 14.0456 101.434 15.1393 101.434 16.3242V20.0703ZM97.8789 16.3242C97.8789 15.6224 97.765 14.9889 97.5371 14.4238C97.3184 13.8496 97.0039 13.362 96.5938 12.9609C96.1927 12.5508 95.7051 12.2363 95.1309 12.0176C94.5658 11.7897 93.9414 11.6758 93.2578 11.6758H88.4453C87.7526 11.6758 87.1191 11.7897 86.5449 12.0176C85.9798 12.2363 85.4922 12.5508 85.082 12.9609C84.6719 13.362 84.3529 13.8496 84.125 14.4238C83.9062 14.9889 83.7969 15.6224 83.7969 16.3242V20.0703C83.7969 20.7721 83.9062 21.4102 84.125 21.9844C84.3529 22.5495 84.6719 23.0371 85.082 23.4473C85.4922 23.8483 85.9798 24.1628 86.5449 24.3906C87.1191 24.6094 87.7526 24.7188 88.4453 24.7188H93.2305C93.9232 24.7188 94.5521 24.6094 95.1172 24.3906C95.6914 24.1628 96.1836 23.8483 96.5938 23.4473C97.0039 23.0371 97.3184 22.5495 97.5371 21.9844C97.765 21.4102 97.8789 20.7721 97.8789 20.0703V16.3242ZM122.953 28H106.738C106.483 28 106.246 27.9544 106.027 27.8633C105.809 27.7721 105.617 27.6491 105.453 27.4941C105.298 27.3301 105.175 27.1387 105.084 26.9199C104.993 26.7012 104.947 26.4642 104.947 26.209V8.39453H108.502V24.4453H122.953V28ZM144.801 28H141.246V23.1875H128.75V28H125.195V18.1973C125.195 16.7663 125.441 15.4492 125.934 14.2461C126.426 13.043 127.109 12.0085 127.984 11.1426C128.859 10.2767 129.894 9.60221 131.088 9.11914C132.282 8.63607 133.585 8.39453 134.998 8.39453H143.01C143.256 8.39453 143.488 8.4401 143.707 8.53125C143.926 8.6224 144.117 8.75 144.281 8.91406C144.445 9.07812 144.573 9.26953 144.664 9.48828C144.755 9.70703 144.801 9.93945 144.801 10.1855V28ZM128.75 19.6328H141.246V11.9492H134.998C134.889 11.9492 134.656 11.9674 134.301 12.0039C133.954 12.0312 133.549 12.1087 133.084 12.2363C132.628 12.3639 132.145 12.5599 131.635 12.8242C131.124 13.0885 130.655 13.4531 130.227 13.918C129.798 14.3828 129.443 14.9661 129.16 15.668C128.887 16.3607 128.75 17.2038 128.75 18.1973V19.6328ZM168.535 14.9844C168.535 15.7956 168.435 16.5202 168.234 17.1582C168.034 17.7962 167.76 18.3613 167.414 18.8535C167.077 19.3366 166.685 19.7513 166.238 20.0977C165.792 20.444 165.322 20.7311 164.83 20.959C164.347 21.1777 163.855 21.3372 163.354 21.4375C162.861 21.5378 162.396 21.5879 161.959 21.5879L169.383 28H163.887L156.477 21.5879H153.92V18.0332H161.959C162.406 17.9967 162.811 17.9056 163.176 17.7598C163.549 17.6048 163.868 17.3997 164.133 17.1445C164.406 16.8893 164.616 16.584 164.762 16.2285C164.908 15.8639 164.98 15.4492 164.98 14.9844V12.7422C164.98 12.5417 164.953 12.3913 164.898 12.291C164.853 12.1816 164.789 12.1042 164.707 12.0586C164.634 12.0039 164.552 11.972 164.461 11.9629C164.379 11.9538 164.301 11.9492 164.229 11.9492H152.498V28H148.943V10.1855C148.943 9.93945 148.989 9.70703 149.08 9.48828C149.171 9.26953 149.294 9.07812 149.449 8.91406C149.613 8.75 149.805 8.6224 150.023 8.53125C150.242 8.4401 150.479 8.39453 150.734 8.39453H164.229C165.021 8.39453 165.691 8.54036 166.238 8.83203C166.785 9.11458 167.227 9.47461 167.564 9.91211C167.911 10.3405 168.157 10.8053 168.303 11.3066C168.458 11.8079 168.535 12.2773 168.535 12.7148V14.9844ZM175.686 28H172.131V8.39453H175.686V28ZM199.051 26.209C199.051 26.4642 199.005 26.7012 198.914 26.9199C198.823 27.1387 198.695 27.3301 198.531 27.4941C198.367 27.6491 198.176 27.7721 197.957 27.8633C197.738 27.9544 197.506 28 197.26 28H189.248C188.492 28 187.726 27.918 186.951 27.7539C186.176 27.5898 185.424 27.3392 184.695 27.002C183.975 26.6556 183.296 26.2181 182.658 25.6895C182.02 25.1608 181.46 24.5365 180.977 23.8164C180.503 23.0872 180.129 22.2578 179.855 21.3281C179.582 20.3893 179.445 19.3457 179.445 18.1973V8.39453H183V18.1973C183 19.1999 183.137 20.0475 183.41 20.7402C183.693 21.4329 184.048 22.0117 184.477 22.4766C184.905 22.9414 185.374 23.306 185.885 23.5703C186.395 23.8346 186.878 24.0306 187.334 24.1582C187.799 24.2858 188.204 24.3678 188.551 24.4043C188.906 24.4316 189.139 24.4453 189.248 24.4453H195.496V8.39453H199.051V26.209ZM226.012 28H222.43V16.3242L216.127 27.4121C215.972 27.6947 215.753 27.9089 215.471 28.0547C215.197 28.2005 214.901 28.2734 214.582 28.2734C214.272 28.2734 213.98 28.2005 213.707 28.0547C213.443 27.9089 213.233 27.6947 213.078 27.4121L206.748 16.3242V28H203.193V9.91211C203.193 9.50195 203.312 9.13737 203.549 8.81836C203.795 8.49935 204.114 8.28516 204.506 8.17578C204.697 8.13021 204.889 8.11654 205.08 8.13477C205.271 8.14388 205.454 8.1849 205.627 8.25781C205.809 8.32161 205.973 8.41732 206.119 8.54492C206.265 8.66341 206.388 8.80924 206.488 8.98242L214.582 23.0508L222.676 8.98242C222.885 8.63607 223.173 8.38997 223.537 8.24414C223.911 8.09831 224.298 8.07552 224.699 8.17578C225.082 8.28516 225.396 8.49935 225.643 8.81836C225.889 9.13737 226.012 9.50195 226.012 9.91211V28Z" fill="white"/>
</svg>
