<svg width="50" height="33" viewBox="0 0 50 33" fill="none" xmlns="http://www.w3.org/2000/svg">
<path d="M11.4079 18.9081C10.4335 15.184 10.3685 6.71707 17.9042 2.64228C25.3105 -1.3626 31.4409 2.87518 33.705 5.62167C19.204 -1.9588 13.3574 8.5568 14.3318 14.6361C23.1668 8.45822 41.1831 5.16114 49.0868 4.28484C33.236 6.91374 17.363 15.1291 11.4079 18.9081Z" fill="#0066B2"/>
<path d="M33.82 5.76409C33.7829 5.71711 33.7445 5.66961 33.705 5.62167M33.705 5.62167C31.4409 2.87518 25.3105 -1.3626 17.9042 2.64228C10.3685 6.71707 10.4335 15.184 11.4079 18.9081C17.363 15.1291 33.236 6.91374 49.0868 4.28484C41.1831 5.16114 23.1668 8.45822 14.3318 14.6361C13.3574 8.5568 19.204 -1.9588 33.705 5.62167Z" stroke="#0066B2" stroke-width="0.331631"/>
<path d="M1 32.8365C13.0702 21.2331 20.8756 16.4969 36.6636 10.6172C38.3572 28.6579 25.5357 28.7464 18.9132 26.5355C27.3813 28.0278 34.2209 22.3901 33.8952 15.0942C20.853 19.6544 13.662 23.6778 1 32.8365Z" fill="#0066B2" stroke="#0066B2" stroke-width="0.331631"/>
</svg>
