<svg width="448" height="72" viewBox="0 0 448 72" fill="none" xmlns="http://www.w3.org/2000/svg">
<path d="M23.8723 40.359C21.7307 32.174 21.5879 13.5652 38.15 4.60945C54.428 -4.19261 67.9016 5.12133 72.8776 11.1577C41.0069 -5.50294 28.157 17.6086 30.2986 30.97C49.7163 17.3919 89.3131 10.1455 106.684 8.21953C71.8468 13.9974 36.9607 32.0533 23.8723 40.359Z" fill="#0066B2"/>
<path d="M1 70.9682C27.5282 45.4657 44.6832 35.0565 79.3827 22.1338C83.1049 61.7844 54.9254 61.9787 40.3703 57.1196C58.9817 60.3995 74.014 48.0087 73.2982 31.9736C44.6335 41.9962 28.8289 50.8388 1 70.9682Z" fill="#0066B2"/>
<path d="M73.1304 11.4707C73.0487 11.3674 72.9645 11.263 72.8776 11.1577M72.8776 11.1577C67.9016 5.12133 54.428 -4.19261 38.15 4.60945C21.5879 13.5652 21.7307 32.174 23.8723 40.359C36.9607 32.0533 71.8468 13.9974 106.684 8.21953C89.3131 10.1455 49.7163 17.3919 30.2986 30.97C28.157 17.6086 41.0069 -5.50294 72.8776 11.1577ZM79.3827 22.1338C44.6832 35.0565 27.5282 45.4657 1 70.9682C28.8289 50.8388 44.6335 41.9962 73.2982 31.9736C74.014 48.0087 58.9817 60.3995 40.3703 57.1196C54.9254 61.9787 83.1049 61.7844 79.3827 22.1338Z" stroke="#0066B2" stroke-width="0.97178"/>
<path d="M155.082 43.7866C155.082 45.1506 154.905 46.3818 154.55 47.4801C154.214 48.5607 153.762 49.5173 153.195 50.3499C152.628 51.1825 151.964 51.8911 151.202 52.4756C150.441 53.0602 149.652 53.5385 148.837 53.9105C148.023 54.2826 147.19 54.5571 146.34 54.7343C145.507 54.9114 144.719 55 143.975 55H117.323V48.0913H143.975C145.303 48.0913 146.331 47.7015 147.057 46.9221C147.801 46.1426 148.173 45.0975 148.173 43.7866C148.173 43.1488 148.076 42.5643 147.881 42.0328C147.686 41.5014 147.403 41.0408 147.031 40.6511C146.676 40.2613 146.233 39.9602 145.702 39.7476C145.188 39.535 144.612 39.4287 143.975 39.4287H128.085C126.969 39.4287 125.764 39.2339 124.471 38.8442C123.178 38.4367 121.973 37.7901 120.857 36.9044C119.759 36.0187 118.838 34.8583 118.094 33.4234C117.367 31.9886 117.004 30.2348 117.004 28.1622C117.004 26.0895 117.367 24.3446 118.094 22.9275C118.838 21.4926 119.759 20.3323 120.857 19.4465C121.973 18.5431 123.178 17.8965 124.471 17.5068C125.764 17.0993 126.969 16.8956 128.085 16.8956H151.601V23.8043H128.085C126.774 23.8043 125.746 24.2029 125.002 25.0001C124.276 25.7973 123.913 26.8513 123.913 28.1622C123.913 29.4908 124.276 30.5448 125.002 31.3243C125.746 32.086 126.774 32.4669 128.085 32.4669H143.975H144.028C144.772 32.4846 145.56 32.5909 146.393 32.7857C147.225 32.9629 148.049 33.2463 148.864 33.636C149.697 34.0257 150.485 34.5218 151.229 35.1241C151.973 35.7086 152.628 36.4172 153.195 37.2498C153.78 38.0824 154.24 39.039 154.577 40.1196C154.914 41.2002 155.082 42.4225 155.082 43.7866ZM200.812 39.5882C200.812 41.9088 200.414 44.0434 199.617 45.9921C198.82 47.9407 197.712 49.6236 196.295 51.0408C194.878 52.4579 193.195 53.5651 191.247 54.3623C189.316 55.1417 187.208 55.5314 184.922 55.5314H175.569C173.284 55.5314 171.167 55.1417 169.218 54.3623C167.27 53.5651 165.587 52.4579 164.17 51.0408C162.752 49.6236 161.636 47.9407 160.821 45.9921C160.024 44.0434 159.626 41.9088 159.626 39.5882V32.3074C159.626 30.0045 160.024 27.8787 160.821 25.9301C161.636 23.9638 162.752 22.2809 164.17 20.8814C165.587 19.4642 167.27 18.3571 169.218 17.5599C171.167 16.7627 173.284 16.3642 175.569 16.3642H184.922C187.208 16.3642 189.316 16.7627 191.247 17.5599C193.195 18.3571 194.878 19.4642 196.295 20.8814C197.712 22.2809 198.82 23.9638 199.617 25.9301C200.414 27.8787 200.812 30.0045 200.812 32.3074V39.5882ZM193.904 32.3074C193.904 30.9434 193.682 29.7122 193.239 28.6139C192.814 27.4979 192.203 26.5501 191.406 25.7707C190.627 24.9735 189.679 24.3624 188.563 23.9372C187.464 23.4943 186.251 23.2729 184.922 23.2729H175.569C174.223 23.2729 172.991 23.4943 171.875 23.9372C170.777 24.3624 169.829 24.9735 169.032 25.7707C168.235 26.5501 167.615 27.4979 167.172 28.6139C166.747 29.7122 166.534 30.9434 166.534 32.3074V39.5882C166.534 40.9522 166.747 42.1922 167.172 43.3083C167.615 44.4066 168.235 45.3543 169.032 46.1515C169.829 46.9309 170.777 47.5421 171.875 47.985C172.991 48.4101 174.223 48.6227 175.569 48.6227H184.869C186.216 48.6227 187.438 48.4101 188.536 47.985C189.652 47.5421 190.609 46.9309 191.406 46.1515C192.203 45.3543 192.814 44.4066 193.239 43.3083C193.682 42.1922 193.904 40.9522 193.904 39.5882V32.3074ZM242.637 55H211.122C210.626 55 210.166 54.9114 209.741 54.7343C209.316 54.5571 208.944 54.318 208.625 54.0168C208.324 53.698 208.084 53.326 207.907 52.9008C207.73 52.4756 207.642 52.0151 207.642 51.5191V16.8956H214.55V48.0913H242.637V55ZM285.099 55H278.19V45.6466H253.904V55H246.995V35.9478C246.995 33.1666 247.473 30.6068 248.43 28.2685C249.386 25.9301 250.715 23.9195 252.416 22.2366C254.116 20.5537 256.127 19.2428 258.447 18.3039C260.768 17.365 263.301 16.8956 266.047 16.8956H281.618C282.097 16.8956 282.548 16.9842 282.973 17.1613C283.399 17.3385 283.771 17.5865 284.089 17.9053C284.408 18.2242 284.656 18.5962 284.833 19.0214C285.011 19.4465 285.099 19.8982 285.099 20.3765V55ZM253.904 38.7379H278.19V23.8043H266.047C265.834 23.8043 265.383 23.8398 264.692 23.9106C264.019 23.9638 263.23 24.1144 262.327 24.3624C261.441 24.6104 260.502 24.9912 259.51 25.505C258.518 26.0187 257.606 26.7273 256.773 27.6307C255.941 28.5342 255.25 29.6679 254.701 31.032C254.169 32.3783 253.904 34.0169 253.904 35.9478V38.7379ZM331.228 29.7034C331.228 31.28 331.034 32.6883 330.644 33.9283C330.254 35.1683 329.723 36.2667 329.049 37.2233C328.394 38.1621 327.632 38.9682 326.764 39.6413C325.896 40.3145 324.984 40.8725 324.027 41.3154C323.088 41.7405 322.132 42.0505 321.158 42.2454C320.201 42.4403 319.298 42.5377 318.447 42.5377L332.876 55H322.194L307.792 42.5377H302.823V35.6289H318.447C319.315 35.5581 320.104 35.3809 320.812 35.0975C321.538 34.7963 322.158 34.3978 322.672 33.9017C323.204 33.4057 323.611 32.8123 323.894 32.1214C324.178 31.4128 324.32 30.6068 324.32 29.7034V25.3455C324.32 24.9558 324.266 24.6635 324.16 24.4686C324.072 24.2561 323.948 24.1055 323.788 24.0169C323.646 23.9106 323.487 23.8486 323.31 23.8309C323.15 23.8132 323 23.8043 322.858 23.8043H300.059V55H293.151V20.3765C293.151 19.8982 293.239 19.4465 293.416 19.0214C293.593 18.5962 293.833 18.2242 294.134 17.9053C294.453 17.5865 294.825 17.3385 295.25 17.1613C295.675 16.9842 296.135 16.8956 296.632 16.8956H322.858C324.399 16.8956 325.701 17.179 326.764 17.7459C327.827 18.2951 328.686 18.9948 329.342 19.8451C330.015 20.6777 330.493 21.5811 330.777 22.5555C331.078 23.5298 331.228 24.4421 331.228 25.2924V29.7034ZM345.126 55H338.217V16.8956H345.126V55ZM390.537 51.5191C390.537 52.0151 390.449 52.4756 390.272 52.9008C390.094 53.326 389.846 53.698 389.528 54.0168C389.209 54.318 388.837 54.5571 388.412 54.7343C387.986 54.9114 387.535 55 387.056 55H371.485C370.015 55 368.527 54.8406 367.021 54.5217C365.515 54.2028 364.054 53.7157 362.637 53.0602C361.237 52.3871 359.917 51.5368 358.677 50.5093C357.437 49.4819 356.348 48.2684 355.409 46.8689C354.488 45.4518 353.762 43.8397 353.23 42.0328C352.699 40.2082 352.433 38.1799 352.433 35.9478V16.8956H359.342V35.9478C359.342 37.8964 359.607 39.5439 360.139 40.8902C360.688 42.2365 361.379 43.3614 362.211 44.2649C363.044 45.1683 363.956 45.8769 364.948 46.3906C365.94 46.9044 366.879 47.2852 367.765 47.5332C368.668 47.7812 369.457 47.9407 370.13 48.0115C370.821 48.0647 371.273 48.0913 371.485 48.0913H383.629V16.8956H390.537V51.5191ZM442.938 55H435.976V32.3074L423.726 53.8574C423.425 54.4066 423 54.8229 422.45 55.1063C421.919 55.3897 421.343 55.5314 420.723 55.5314C420.121 55.5314 419.554 55.3897 419.023 55.1063C418.509 54.8229 418.101 54.4066 417.8 53.8574L405.497 32.3074V55H398.589V19.8451C398.589 19.0479 398.819 18.3393 399.28 17.7193C399.758 17.0993 400.378 16.683 401.14 16.4704C401.512 16.3819 401.884 16.3553 402.256 16.3907C402.628 16.4084 402.982 16.4882 403.319 16.6299C403.673 16.7539 403.992 16.9399 404.275 17.1879C404.559 17.4182 404.798 17.7016 404.993 18.0382L420.723 45.3809L436.454 18.0382C436.861 17.365 437.419 16.8867 438.128 16.6033C438.854 16.3199 439.607 16.2756 440.387 16.4704C441.131 16.683 441.742 17.0993 442.22 17.7193C442.698 18.3393 442.938 19.0479 442.938 19.8451V55Z" fill="white"/>
</svg>
